OFF
502 1000 0
-0.4338997 0.7494976 0.2547858 
-0.06734106 -0.7039729 -0.6742946 
0.1581046 -0.4870109 -0.6733504 
-0.3821497 0.7330768 0.2287522 
-0.3899369 0.7871326 0.3216237 
0.2231185 -0.5587671 -0.6643526 
0.1554282 -0.5336593 -0.652612 
0.1329426 0.1681999 -0.6592349 
-0.362016 0.6847415 0.3627854 
-0.1452846 0.3175837 -0.672074 
-0.06676131 -0.6676082 -0.6612099 
0.1581996 0.1167566 -0.6176036 
-0.3501413 0.6721414 0.3109682 
-0.06353702 0.3624212 -0.6640615 
-0.1595544 -0.6674985 -0.6761689 
0.1335209 0.1352857 -0.6675802 
-0.395622 0.7890496 0.2614402 
-0.3633208 0.7707913 0.238455 
0.2446026 -0.5205523 -0.6527007 
-0.4143748 0.7104154 0.2608101 
-0.07963185 0.3419836 -0.6075549 
0.1486614 0.1317345 -0.6117027 
-0.3487087 0.7889131 0.2818655 
-0.3358962 0.7599189 0.3626299 
-0.08001413 0.3208973 -0.6192425 
-0.1316873 0.3448425 -0.6110495 
-0.1066878 0.3534245 -0.59983 
0.1734192 -0.5190769 -0.5923848 
-0.2943737 0.7585704 0.2968818 
0.2165169 -0.5552951 -0.6088945 
0.1403508 0.1467009 -0.5390276 
-0.07993216 -0.7085537 -0.5997781 
-0.06326009 0.30646 -0.5655305 
0.2294234 -0.5297017 -0.5515397 
-0.2858231 0.7509657 0.4050108 
-0.3599795 0.7334551 0.3835051 
-0.2925582 0.7623485 0.3264511 
-0.114649 0.3132376 -0.5109006 
0.1594416 -0.5491579 -0.5369358 
0.1424896 0.09912258 -0.5522104 
-0.07412765 0.2846484 -0.5115003 
-0.2990691 0.5940185 0.4610769 
-0.3070013 0.6277264 0.4687597 
-0.2639846 0.7414823 0.4565843 
-0.2802086 0.7220815 0.2878447 
-0.0676178 -0.6901706 -0.5322724 
0.1738548 -0.5633655 -0.4900861 
0.1948799 0.1372997 -0.496247 
-0.2926895 0.5986448 0.3858303 
-0.140521 -0.699093 -0.5160774 
-0.2587486 0.6303172 0.2913404 
-0.0890324 -0.7261771 -0.4516544 
-0.2318338 0.7411128 0.320066 
0.1992898 -0.5734932 -0.4458642 
0.2172465 -0.5268003 -0.4355908 
-0.2049944 0.7551083 0.376844 
-0.2151471 0.7672055 0.4582929 
-0.2165353 0.5493253 0.3753887 
-0.2081896 0.6746052 0.5456863 
-0.2262511 0.5606791 0.3117225 
-0.123736 0.2889048 -0.4914052 
-0.2310208 0.5825169 0.4836903 
-0.1785045 0.7089456 0.5329849 
-0.2130304 0.6347917 0.558803 
-0.1747732 0.6442891 0.2830652 
-0.07165036 -0.688942 -0.3789035 
-0.1507837 0.5567219 0.3037926 
-0.1495741 0.730611 0.3578073 
-0.1752101 0.596759 0.5521528 
-0.1392483 0.5959743 0.2853157 
-0.166607 0.5476887 0.3953854 
-0.2001784 0.5897766 0.2873021 
-0.1635275 0.3533343 0.05448772 
-0.1558598 0.7256101 0.482959 
-0.1765877 -0.3552378 -0.03774326 
-0.1903552 0.5567535 0.4694273 
-0.1550393 0.3189461 0.1258703 
-0.1178233 -0.6664943 -0.4573878 
-0.1668151 -0.2001171 -0.04964986 
-0.1384406 0.7057556 0.3127253 
-0.1448489 0.7159546 0.5759673 
-0.150785 0.3863245 -0.6809621 
0.1833239 0.1776678 -0.4032682 
-0.1044797 -0.7173813 -0.68603 
-0.1567005 0.2031287 -0.1141788 
-0.1512076 -0.5486646 0.05475949 
-0.1520064 -0.5116495 0.1280701 
-0.1251809 0.2451543 -0.2150646 
-0.1042614 0.6710904 0.4709755 
-0.1298704 0.5222812 0.5330896 
-0.1616593 0.6749319 0.5528425 
-0.1412355 -0.7219949 -0.6667179 
-0.1405092 -0.6370721 -0.6833901 
-0.1306217 -0.6805055 -0.3896923 
-0.1343393 -0.6955994 -0.5931687 
0.1720521 -0.5269995 -0.4358 
-0.1294239 0.3198828 -0.1755432 
-0.1380139 0.334533 -0.08880755 
-0.0800879 -0.5846256 0.1229791 
0.1771215 0.1430683 -0.4017858 
-0.07503282 0.3167261 -0.3758489 
-0.09820719 0.3844805 -0.6438387 
-0.1230785 -0.5861675 -0.1184454 
-0.1187725 0.2031717 -0.1584795 
-0.1210916 -0.1082459 -0.1452467 
-0.1268919 -0.5840989 -0.06839009 
-0.1206043 0.2843441 -0.2794477 
-0.05523398 0.2779751 -0.3787028 
-0.1135975 0.3085936 -0.6207424 
-0.1111953 0.4555937 0.4546738 
-0.09004124 -0.658233 -0.4209177 
0.2146848 -0.4850762 -0.3626395 
-0.1018817 -0.7191476 -0.4123622 
-0.1243849 -0.6939283 -0.3410187 
-0.1297861 -0.6382876 -0.3537704 
-0.1044454 -0.4608216 0.2207587 
-0.1159389 0.2160403 -0.2379257 
-0.1025694 -0.7305808 -0.674085 
-0.1240576 -0.7062972 -0.4666018 
-0.116584 0.3083002 -0.3933591 
-0.1062687 -0.6086364 -0.164436 
-0.09439991 -0.06597507 -0.1676241 
-0.07972787 -0.5434676 0.1887979 
-0.1079048 0.529713 0.2924794 
-0.1094705 0.404299 -0.6890353 
-0.1152169 0.6685429 0.521988 
-0.1240271 0.6122804 0.5622589 
-0.1217044 0.2712632 -0.5699226 
-0.1162556 -0.7564397 -0.5484668 
-0.1080674 0.2581291 -0.5244867 
0.1606076 -0.5129064 -0.3464798 
-0.09362978 0.3180602 -0.4846782 
-0.1063999 0.3039269 -0.2842656 
-0.04485025 -0.3082964 -0.07015663 
-0.1143459 -0.6735381 -0.2413843 
-0.1169468 0.3784008 0.1331297 
-0.06802127 0.5710316 0.2970466 
-0.1170907 0.3078835 -0.6865305 
-0.1056599 -0.667288 -0.5987263 
-0.1029114 -0.6333125 -0.6825491 
-0.1099824 -0.6075181 -0.3187801 
-0.08281212 -0.6754264 -0.4765929 
-0.1073336 -0.477661 -0.1033944 
-0.1015528 0.2265684 -0.4106897 
-0.09558216 0.2108874 -0.2931831 
-0.06493005 -0.3393674 -0.0656332 
0.1042766 0.1760918 -0.3613531 
0.1938776 0.1984571 -0.3467441 
-0.08314642 0.2693493 -0.5696453 
-0.1167308 -0.7221338 -0.6012772 
0.2205176 -0.506919 -0.3043704 
-0.08099235 0.2541049 -0.4478752 
-0.1143793 -0.4059016 -0.08892198 
-0.07110262 0.231746 -0.352377 
-0.06553529 0.2949366 -0.2733859 
-0.0905932 -0.572727 -0.2681685 
-0.09137933 -0.6326343 -0.189074 
-0.09428535 -0.5042312 -0.1406863 
-0.05739857 -0.609656 -0.02569879 
-0.1342205 0.24938 -0.4066309 
-0.09076037 0.3321048 -0.5378805 
-0.07197896 0.3265891 -0.6843123 
-0.08405718 -0.680022 -0.5923128 
-0.05489865 -0.6409776 -0.3113599 
-0.07038613 -0.7408818 -0.5394111 
0.1701507 -0.4674158 -0.3381916 
-0.06542833 -0.1660388 0.193637 
-0.09622714 -0.4628313 -0.1474554 
-0.06168915 0.1869121 -0.1977575 
-0.09548026 0.3204034 -0.1807389 
-0.04855974 -0.4220535 -0.09165642 
-0.06568228 -0.6203699 -0.3229286 
-0.05650157 -0.6113737 0.07872602 
-0.1358072 0.2752766 -0.3573646 
-0.05390204 0.5222513 0.2348362 
-0.03010478 0.6052315 0.479923 
-0.05884784 0.4021448 0.4537781 
-0.05414601 -0.4623902 -0.1145343 
-0.06272849 -0.5872797 -0.1333684 
0.1595194 0.227132 -0.3633375 
-0.117947 0.2219236 -0.3219309 
-0.07251686 -0.6869656 -0.3204246 
-0.1031871 -0.3720083 0.2340258 
-0.08957793 -0.2796003 0.238119 
-0.03599776 0.3147471 -0.1624542 
-0.0778828 0.596683 0.5448857 
-0.07600766 0.3618055 -0.1186604 
-0.04980871 0.4868768 0.1794474 
0.1613315 0.1654079 -0.2751856 
0.1677765 0.2279328 -0.2546672 
-0.068624 -0.4927172 -0.07526772 
-6.766085e-05 0.4216107 0.06737414 
-0.02209276 0.136573 -0.1936901 
-0.01428112 0.1256507 0.2529096 
-0.02235103 0.4651117 0.5228064 
-0.02221659 0.3678405 -0.0919062 
-0.001385221 -0.149828 0.2173257 
-0.0196569 -0.4542246 -0.09256881 
0.0970298 0.2224079 -0.275364 
-0.03817187 0.2582306 -0.1881116 
-0.0534641 0.2661352 -0.2892032 
0.01397482 0.5445496 0.352486 
-0.1326 -0.5990396 -0.2669403 
0.142237 -0.462561 -0.2788512 
-0.009777175 -0.4238682 0.2620438 
-0.006939694 -0.2084748 -0.1612329 
-0.03051106 -0.5903659 0.1540731 
0.1176288 0.2270417 -0.3317539 
-0.131234 -0.5315449 -0.2387813 
-0.01612477 0.1978879 0.2886055 
-0.02307476 0.2460323 0.323483 
-0.006432447 0.399005 0.4845426 
-0.07846469 -0.6852491 -0.2387406 
-0.01495715 -0.1045875 -0.1987107 
-0.02763272 0.04014855 -0.2028286 
0.02507975 -0.5663254 0.008527811 
0.1928536 -0.5399076 -0.2641765 
0.01594729 -0.5998909 0.09128852 
-0.002459486 0.03314185 0.1991213 
-0.000797583 0.2332615 -0.1891262 
-0.005884518 0.3219703 0.4173357 
0.2296781 -0.4681573 -0.2366853 
-0.01167399 -0.04316871 0.1952822 
-0.06126474 0.2194246 -0.2133709 
0.04950706 0.4686331 0.1821241 
0.01646329 0.2290681 0.3329817 
-0.1275742 0.3007516 -0.2339511 
0.04086657 0.3206688 0.4053122 
-0.1111298 -0.6140364 -0.234696 
0.1466392 -0.4542883 -0.236313 
0.08741287 0.2681617 -0.1849646 
0.194753 -0.4959376 -0.19964 
0.2195755 -0.4161067 -0.2468187 
0.01440302 -0.2561826 -0.126672 
0.04489167 0.03228862 -0.2025042 
0.04552836 -0.5838556 0.1155478 
0.02581633 0.5317534 0.4364392 
-0.06300571 -0.6698989 -0.2300651 
-0.1553783 -0.5400508 -0.2165438 
-0.06049279 -0.5759086 -0.2333399 
0.1810869 -0.5171812 -0.2141266 
0.1569238 -0.4894688 -0.2017273 
0.05585045 -0.5613709 0.04566472 
0.03766317 0.1440842 0.2666911 
0.07400104 0.233747 -0.1976535 
-0.05894988 -0.6095561 -0.1873611 
-0.1531699 -0.5738886 -0.1951487 
0.06854606 0.4085127 -0.006310973 
0.04577987 0.5137083 0.2956339 
-0.08579923 -0.4944105 -0.1782459 
0.03727166 -0.3318548 -0.06246744 
0.05507601 0.2005789 0.2967499 
0.04951262 0.2428466 0.3297909 
0.04570463 -0.4460152 -0.0779198 
0.2467063 -0.4176684 -0.1876773 
-0.00340151 -0.2961246 0.2662625 
0.08543541 0.4274814 0.1017226 
0.09541897 -0.01449197 -0.1868838 
0.1219188 -0.3857644 0.2700454 
0.09505302 -0.2465928 -0.1220228 
0.08261421 0.3866509 -0.06325969 
0.05354366 -0.5592952 0.1969774 
0.1043824 0.1091074 -0.1979356 
-0.1006149 0.2014947 -0.2152501 
0.1288687 -0.41189 -0.07994851 
0.148522 -0.2835675 -0.1072518 
0.149466 -0.4135921 -0.1312273 
0.1595498 -0.3983524 -0.2062098 
0.1054 -0.2802145 0.2675866 
0.1492362 -0.5873319 0.09162033 
0.09789954 -0.02486316 0.1980847 
0.0819663 -0.469077 -0.07656589 
0.1195107 0.1732384 0.2259119 
-0.1072598 -0.4759877 -0.1731181 
-0.1414032 -0.4822919 -0.1607814 
0.0859333 0.169296 -0.2023269 
-0.06386805 0.0538702 -0.1770367 
0.1095792 0.06636625 -0.1610414 
0.1004939 0.09401304 0.2010556 
0.1094375 0.1633895 -0.2793115 
-0.160675 0.2725974 -0.1590827 
0.1617554 -0.3425633 -0.1125299 
0.1008493 0.3566303 -0.1296352 
0.1079979 -0.1382902 0.2186518 
-0.0440721 0.145567 -0.173604 
0.1845207 0.2354316 -0.1922496 
-0.1621285 -0.5496259 -0.1580026 
0.1416834 -0.3226581 -0.08207835 
0.1383993 0.1465918 -0.1961282 
0.1013674 -0.1372903 -0.1737978 
-0.06516872 0.1383184 -0.1237081 
0.07628442 0.03941232 0.1998931 
-0.1534578 0.3172546 -0.1236871 
-0.1562731 -0.4863661 -0.1070023 
0.1232684 -0.4849133 0.2448284 
0.1377871 0.1511292 -0.266262 
0.2207768 -0.09726824 -0.09287234 
0.1785699 -0.5041778 -0.08989044 
0.1335063 -0.4876717 -0.08995558 
0.13317 0.1581398 -0.4508877 
0.1509376 -0.5309508 0.2072927 
-0.1472732 -0.4437956 -0.1042046 
0.1189138 0.1397616 -0.3482051 
0.1248311 0.2835016 -0.1872957 
0.153086 -0.2023255 -0.1169846 
0.1404358 0.1426491 -0.09874818 
0.1556057 0.250303 -0.2804795 
0.2002387 -0.00647458 -0.100809 
0.1491794 0.1265393 -0.3840335 
-0.1827675 0.2707451 -0.06822104 
0.1613422 0.3674891 -0.04331261 
-0.01973244 -0.5859102 -0.0404578 
0.1464684 0.1204017 -0.4764712 
0.1317082 0.3105915 -0.1648081 
0.160762 -0.07123116 0.1850096 
-0.1253869 -0.006649854 -0.1302207 
-0.1522816 -0.5436909 -0.1000824 
-0.05341402 -0.5716781 -0.1601282 
0.1522676 -0.480916 -0.1422067 
-0.06556296 0.1609258 -0.1330733 
0.1647279 0.1590334 -0.6004237 
0.1678808 0.105018 -0.4701686 
0.2312497 -0.3595322 -0.1090978 
0.1938881 -0.3211681 -0.1036602 
0.1221393 0.3673139 0.2113604 
0.1558769 -0.1587839 0.207841 
0.1833488 0.3757615 0.09661561 
0.1693187 -0.4967752 -0.6177983 
0.1775118 0.07643855 -0.5491161 
0.1581048 0.1851124 -0.4453503 
0.1609107 -0.2404808 -0.09040999 
0.1573673 0.4025308 0.08678062 
-0.1025069 0.1289772 -0.07620145 
0.1508526 0.1980897 -0.681899 
0.2137377 0.2371405 -0.08283229 
0.1815685 0.3091367 -0.1328841 
0.1755122 0.1694835 -0.5057752 
-0.04046816 -0.5343156 -0.03564204 
0.1881119 -0.5450153 0.170508 
0.2330056 -0.4889944 -0.08186645 
0.178041 -0.5492464 -0.3826102 
-0.1187956 -0.2117948 -0.1070196 
0.1744001 -0.4919072 -0.1425507 
0.163094 0.2688548 -0.2105579 
0.1779615 0.1414482 -0.02871141 
0.1575213 -0.06954924 -0.1536132 
0.1464726 0.05175063 0.1600765 
0.191113 0.09588394 -0.03193248 
0.1434221 -0.5783379 0.1444496 
0.1629123 0.1275994 -0.06193871 
0.1984845 0.1143286 -0.5961989 
0.1780744 -0.558145 -0.6758397 
-0.1804629 -0.4933167 -0.06721217 
0.1675499 -0.4045103 -0.2408504 
0.1615766 -0.5342597 -0.2833643 
-0.1669668 -0.07269932 -0.08289484 
-0.09681401 0.3845445 -0.07269175 
0.1825739 0.2022868 -0.6683962 
0.1889299 0.1571232 -0.5978367 
0.1735477 -0.5925186 -0.5509883 
0.1897092 -0.4861902 -0.397631 
0.2361353 -0.3181139 -0.0737166 
0.1834395 -0.3650285 -0.1835482 
-0.1516862 0.0449532 -0.04856268 
0.2436536 -0.0516784 -0.03519563 
0.2018219 0.1181778 -0.678586 
0.1842336 -0.2816635 0.2523734 
0.2226171 -0.4628266 -0.6752588 
0.1691983 0.1049584 -0.674385 
0.1904264 -0.5195268 -0.5533189 
0.1965849 -0.5107476 -0.4589936 
0.1986226 -0.5551941 -0.3764277 
0.2540332 -0.4087462 -0.07480321 
0.2012879 0.194177 -0.09330168 
0.2234275 0.148797 -0.6745394 
-0.1701103 0.3127314 -0.02240098 
0.1643697 0.3344194 -0.07938576 
0.1774082 -0.5517255 -0.6117662 
0.2090565 0.111012 -0.541052 
0.2078383 -0.242325 -0.03061463 
0.2156118 0.1756248 -0.6556029 
0.2213714 0.2676151 -0.03267708 
0.2022464 -0.6016873 -0.5465203 
-0.1605152 -0.5429785 -0.0662998 
0.2447643 -0.4977019 0.1506248 
-0.191755 -0.3807648 -0.0179089 
0.210428 -0.4745262 -0.1316502 
0.2223502 -0.5282356 -0.5840063 
0.04663215 -0.5155736 -0.02536016 
0.218734 -0.463713 0.2094144 
0.2254834 -0.4398236 -0.2577813 
0.2143841 -0.3415207 -0.1185616 
0.2182771 -0.002176814 0.09328282 
0.2388657 -0.5650905 -0.5388107 
0.2316626 -0.4698362 -0.3030481 
0.2190174 -0.3838164 -0.2080509 
0.212672 0.3021626 0.0006374189 
0.1862691 0.3709629 0.01274734 
0.2379476 -0.3714551 0.2141047 
0.2458702 -0.1526414 -0.03520872 
0.205599 -0.530479 -0.04001802 
0.2373753 -0.438069 -0.1163403 
0.2000002 0.1809532 -0.006762746 
-0.1871258 -0.5000486 -0.0149922 
0.2721009 -0.4000722 0.07572695 
-0.120304 0.1388468 -0.03061341 
-0.1391121 0.1504793 0.06776048 
-0.06758245 -0.6117782 0.01913926 
-0.1106126 -0.5662668 -0.003237512 
0.1397201 0.4114729 0.02201328 
0.2461748 -0.2134746 0.06059891 
0.264269 -0.4504072 -0.01274243 
0.2606923 -0.3062162 -0.007254622 
-0.1878172 -0.06163628 0.002726008 
-0.1364323 0.3905278 -0.001279204 
0.2729489 -0.3595101 0.04047239 
-0.1199038 -0.296029 -0.03493974 
0.2575836 -0.1136787 0.04717135 
-0.1409754 0.09942698 0.05508468 
0.2060394 0.2194087 0.06500511 
0.2274172 -0.2563623 0.03837238 
0.1910055 0.1173998 0.04334307 
-0.1795996 -0.1858549 -0.009793486 
0.1734982 -0.5658876 0.01324552 
0.2688579 -0.4716923 0.04646792 
-0.1748168 -0.3578511 0.07607528 
0.1882409 0.1007982 0.08641198 
-0.1446995 -0.2884172 0.05037421 
-0.1777948 -0.1671589 0.06839591 
0.250529 -0.1481367 0.09571979 
-0.1810549 -0.4921756 0.04740304 
0.2503189 -0.06620598 0.05858597 
-0.1627325 0.2051466 0.04627949 
-0.1742902 -0.0455223 0.06682701 
-0.0510009 0.4277215 0.08130258 
0.2339167 -0.2385149 0.09812248 
0.2001278 -0.5727848 0.06357232 
-0.1427078 -0.2523384 0.1114975 
-0.1372653 -0.1216253 0.135255 
0.1564172 0.0925888 0.1423369 
-0.1678716 0.2746732 0.09153244 
0.2508882 -0.2787796 0.1281037 
0.2209009 -0.08360412 0.1385063 
0.1890523 0.3425168 0.1156053 
0.2656923 -0.4102243 0.1504137 
0.2205293 -0.2106614 0.1583524 
-0.1750914 -0.4069954 0.1397588 
-0.1203049 0.0592031 0.119665 
-0.1341698 0.1744053 0.1392481 
0.1211772 0.4105657 0.1543569 
-0.1543209 -0.3171249 0.1749376 
-0.03720677 0.02623365 0.1824137 
-0.09907986 0.1004968 0.1524567 
0.2450426 -0.2837065 0.1861922 
0.1712968 0.2209391 0.1738878 
-0.1240307 0.3119939 0.1796325 
-0.1163687 -0.2108843 0.159908 
-0.05717644 0.07784521 0.185523 
-0.1356162 0.240539 0.1693196 
-0.06845418 0.3222443 0.2327507 
-0.09895033 0.3619646 0.1795928 
-0.05323045 0.4549114 0.1409445 
-0.1087187 0.1666152 0.1866931 
0.2050329 -0.3842749 0.2416443 
0.1692127 0.2812859 0.1775423 
-0.09631866 0.4060105 0.2000237 
0.08323143 0.4617493 0.2863127 
0.07742599 0.4677858 0.2252275 
-0.03750959 -0.5136446 0.2256374 
-0.08311986 0.4798326 0.2240382 
-0.1062808 0.2807623 0.215505 
0.1207694 0.2306788 0.2302727 
-0.06497298 0.1738654 0.2326377 
0.09645052 0.2890734 0.2694643 
-0.06566618 0.2716647 0.2531582 
0.08607982 0.4103773 0.295799 
-0.0924518 0.5358111 0.2755018 
-0.439018 0.7659934 0.2955069 
-0.3269521 0.6797875 0.2787035 
-0.1037448 0.4430194 0.2911161 
-0.0455808 0.5618859 0.3062641 
-0.08913981 0.3995823 0.3743723 
-0.1154764 0.5000233 0.3472242 
-0.1436263 0.5393847 0.3863873 
-0.06277443 0.3207364 0.3227976 
-0.07396147 0.6249282 0.3995547 
-0.09666914 0.6327686 0.3481897 
-0.1080278 0.6779519 0.3362824 
0.05717456 0.4876344 0.3587742 
-0.1275642 0.4699121 0.4121596 
-0.009956139 0.588328 0.4311398 
-0.32401 0.6439983 0.3929603 
0.03634978 0.3775208 0.4469517 
-0.3412633 0.6964442 0.411836 
0.02667478 0.4546972 0.4720688 
-0.006582996 0.5336831 0.5024192 
-0.1961012 0.5621709 0.5181155 
-0.06072499 0.5385592 0.5497361 
-0.2456073 0.6038657 0.5120004 
-0.2495934 0.5777783 0.5681573 
-0.1371065 0.7362539 0.5553414 
-0.2264353 0.6020728 0.5893964 
3 477 0 19 
3 477 16 0 
3 16 477 4 
3 8 477 19 
3 3 19 0 
3 35 477 8 
3 0 17 3 
3 0 16 17 
3 35 4 477 
3 8 19 12 
3 4 35 23 
3 16 4 22 
3 16 22 17 
3 493 35 8 
3 12 19 478 
3 478 19 3 
3 22 28 17 
3 493 8 491 
3 491 8 12 
3 44 478 3 
3 3 17 44 
3 35 493 43 
3 17 28 44 
3 22 4 23 
3 42 493 491 
3 35 34 23 
3 42 491 41 
3 48 491 12 
3 22 36 28 
3 22 23 36 
3 41 491 48 
3 50 12 478 
3 42 43 493 
3 35 43 34 
3 59 48 12 
3 57 48 59 
3 28 36 52 
3 498 41 61 
3 50 59 12 
3 498 42 41 
3 478 44 50 
3 23 34 36 
3 41 48 61 
3 43 42 58 
3 44 28 52 
3 34 43 56 
3 63 42 498 
3 58 42 63 
3 36 34 55 
3 61 499 498 
3 61 48 57 
3 501 498 499 
3 498 501 63 
3 62 43 58 
3 43 62 56 
3 34 56 55 
3 499 61 496 
3 496 501 499 
3 59 50 71 
3 52 36 55 
3 50 64 71 
3 50 44 64 
3 75 496 61 
3 44 52 64 
3 66 59 71 
3 61 57 70 
3 496 68 501 
3 90 58 63 
3 64 52 79 
3 75 61 70 
3 68 63 501 
3 64 69 71 
3 80 62 58 
3 52 55 67 
3 73 55 56 
3 385 352 403 
3 430 385 403 
3 430 425 385 
3 422 428 413 
3 428 433 413 
3 90 80 58 
3 79 52 67 
3 56 62 73 
3 383 403 352 
3 352 293 383 
3 446 430 86 
3 446 425 430 
3 352 385 74 
3 422 355 78 
3 413 355 422 
3 432 309 84 
3 432 440 309 
3 440 375 309 
3 440 72 375 
3 57 59 66 
3 75 70 483 
3 55 73 67 
3 403 383 85 
3 85 430 403 
3 430 85 86 
3 446 437 425 
3 74 385 427 
3 385 425 427 
3 422 427 428 
3 428 438 433 
3 413 363 355 
3 309 280 84 
3 309 292 280 
3 309 375 292 
3 57 66 70 
3 126 63 68 
3 246 286 238 
3 286 293 238 
3 316 293 286 
3 383 293 316 
3 293 352 301 
3 301 352 74 
3 446 450 437 
3 428 427 437 
3 418 413 433 
3 97 292 375 
3 440 76 72 
3 414 375 72 
3 126 90 63 
3 293 274 238 
3 86 115 446 
3 152 74 416 
3 427 425 437 
3 416 422 78 
3 427 422 416 
3 104 78 355 
3 447 433 438 
3 418 433 447 
3 84 406 432 
3 448 440 432 
3 440 458 76 
3 68 496 89 
3 73 62 500 
3 80 500 62 
3 246 238 202 
3 102 286 246 
3 316 286 102 
3 238 274 208 
3 293 301 274 
3 450 446 115 
3 450 456 437 
3 438 428 437 
3 341 78 104 
3 315 355 363 
3 418 363 413 
3 406 84 405 
3 458 440 448 
3 103 84 280 
3 292 226 280 
3 414 97 375 
3 9 25 81 
3 135 72 76 
3 489 75 483 
3 70 66 483 
3 487 64 79 
3 14 83 91 
3 91 94 14 
3 92 83 14 
3 113 114 93 
3 113 202 114 
3 316 102 105 
3 105 383 316 
3 85 98 86 
3 152 301 74 
3 74 427 416 
3 437 456 438 
3 355 315 104 
3 363 418 405 
3 448 432 406 
3 226 87 280 
3 455 76 458 
3 292 96 226 
3 76 455 135 
3 81 137 9 
3 124 137 81 
3 496 109 89 
3 483 66 123 
3 69 66 71 
3 486 64 487 
3 128 49 149 
3 149 49 94 
3 202 113 228 
3 202 228 246 
3 202 238 208 
3 115 86 122 
3 115 182 450 
3 450 182 183 
3 341 416 78 
3 418 406 405 
3 452 448 406 
3 280 87 103 
3 173 159 180 
3 226 106 87 
3 159 173 60 
3 37 25 127 
3 96 292 97 
3 108 25 9 
3 135 414 72 
3 489 109 75 
3 109 496 75 
3 483 482 489 
3 126 125 90 
3 90 125 80 
3 67 73 88 
3 91 83 117 
3 91 149 94 
3 118 77 49 
3 93 77 118 
3 14 94 138 
3 49 138 94 
3 49 77 138 
3 92 14 138 
3 93 114 77 
3 140 114 202 
3 120 246 228 
3 120 102 246 
3 202 208 140 
3 408 383 105 
3 383 408 85 
3 208 274 273 
3 274 301 167 
3 152 167 301 
3 456 450 183 
3 447 406 418 
3 405 332 363 
3 462 458 448 
3 129 159 60 
3 106 173 180 
3 106 132 173 
3 129 37 127 
3 60 37 129 
3 173 119 60 
3 119 173 132 
3 127 25 108 
3 25 37 26 
3 414 356 97 
3 81 25 101 
3 81 101 124 
3 126 68 89 
3 126 185 125 
3 487 79 67 
3 500 80 125 
3 500 88 73 
3 49 128 118 
3 149 91 117 
3 112 93 118 
3 93 112 113 
3 134 228 113 
3 110 77 114 
3 139 92 138 
3 105 102 158 
3 155 140 208 
3 167 273 274 
3 363 332 315 
3 447 452 406 
3 462 448 452 
3 103 87 116 
3 159 143 180 
3 116 106 180 
3 116 87 106 
3 470 455 458 
3 226 132 106 
3 137 108 9 
3 119 37 60 
3 26 101 25 
3 482 481 489 
3 64 486 69 
3 67 88 487 
3 500 125 88 
3 51 118 128 
3 118 51 112 
3 134 113 212 
3 83 92 139 
3 141 77 110 
3 140 110 114 
3 156 120 228 
3 407 408 105 
3 98 85 408 
3 155 208 273 
3 145 152 416 
3 315 121 104 
3 103 116 263 
3 180 144 116 
3 159 129 143 
3 132 100 119 
3 226 96 169 
3 26 37 160 
3 96 97 186 
3 460 135 455 
3 109 176 89 
3 482 483 123 
3 66 476 123 
3 66 69 476 
3 126 89 497 
3 149 117 31 
3 138 77 162 
3 156 228 134 
3 408 172 98 
3 122 86 98 
3 456 183 166 
3 447 438 166 
3 462 452 457 
3 405 319 332 
3 319 405 84 
3 319 84 103 
3 263 284 103 
3 144 263 116 
3 144 180 143 
3 37 119 131 
3 226 169 132 
3 455 470 459 
3 160 37 131 
3 186 169 96 
3 124 161 137 
3 460 465 135 
3 109 489 481 
3 479 469 465 
3 482 469 479 
3 481 482 479 
3 469 482 123 
3 69 136 476 
3 487 88 485 
3 128 164 51 
3 164 128 149 
3 77 141 45 
3 134 212 156 
3 138 10 139 
3 407 105 158 
3 166 438 456 
3 315 290 276 
3 332 290 315 
3 144 143 153 
3 151 143 129 
3 129 127 148 
3 148 127 108 
3 137 161 108 
3 131 119 100 
3 459 460 455 
3 186 97 356 
3 460 479 465 
3 469 123 476 
3 486 136 69 
3 125 185 175 
3 487 485 486 
3 112 181 113 
3 212 113 181 
3 77 45 162 
3 110 140 171 
3 102 120 178 
3 158 102 178 
3 140 155 171 
3 172 408 407 
3 273 239 155 
3 115 122 468 
3 142 190 157 
3 142 157 177 
3 152 145 170 
3 133 416 341 
3 315 276 121 
3 458 462 472 
3 223 263 144 
3 458 472 470 
3 129 148 40 
3 474 459 470 
3 100 132 154 
3 154 132 169 
3 108 161 24 
3 26 160 20 
3 459 479 460 
3 13 124 101 
3 135 465 434 
3 414 135 434 
3 484 481 479 
3 31 164 149 
3 31 117 1 
3 117 83 1 
3 65 112 51 
3 181 112 65 
3 10 138 162 
3 156 212 237 
3 249 157 273 
3 273 167 249 
3 416 133 145 
3 447 166 451 
3 472 462 457 
3 319 103 284 
3 168 284 263 
3 474 470 472 
3 129 40 151 
3 148 108 24 
3 131 40 160 
3 26 20 13 
3 101 26 13 
3 124 13 161 
3 176 109 481 
3 469 461 465 
3 497 89 194 
3 175 88 125 
3 141 51 164 
3 139 1 83 
3 65 51 141 
3 162 45 31 
3 110 65 141 
3 156 178 120 
3 157 317 273 
3 177 157 249 
3 249 167 177 
3 104 205 341 
3 214 121 276 
3 290 332 319 
3 263 223 168 
3 144 153 223 
3 151 153 143 
3 32 40 148 
3 107 151 40 
3 32 148 24 
3 131 107 40 
3 100 107 131 
3 160 40 32 
3 20 32 24 
3 160 32 20 
3 484 479 459 
3 481 484 176 
3 461 434 465 
3 469 174 187 
3 476 174 469 
3 476 136 174 
3 480 486 485 
3 45 164 31 
3 45 141 164 
3 10 31 1 
3 162 31 10 
3 181 237 212 
3 1 139 10 
3 163 65 110 
3 171 163 110 
3 156 237 245 
3 178 156 245 
3 155 239 171 
3 317 239 273 
3 190 142 177 
3 170 167 152 
3 121 213 104 
3 121 214 213 
3 452 447 451 
3 107 153 151 
3 169 199 154 
3 13 24 161 
3 13 20 24 
3 356 414 434 
3 469 187 461 
3 480 174 136 
3 185 126 497 
3 486 480 136 
3 88 490 485 
3 88 175 490 
3 163 237 181 
3 163 181 65 
3 239 163 171 
3 98 206 122 
3 317 157 190 
3 196 166 183 
3 192 214 276 
3 457 193 472 
3 290 319 284 
3 472 209 474 
3 200 223 153 
3 200 153 107 
3 210 484 474 
3 100 154 200 
3 484 459 474 
3 356 195 186 
3 245 237 163 
3 239 245 163 
3 317 245 239 
3 178 245 317 
3 337 317 190 
3 170 177 167 
3 255 182 204 
3 255 183 182 
3 104 213 205 
3 451 166 222 
3 457 452 451 
3 192 276 284 
3 284 276 290 
3 168 192 284 
3 210 474 209 
3 154 223 200 
3 100 200 107 
3 199 169 184 
3 184 169 186 
3 158 178 311 
3 206 98 172 
3 317 311 178 
3 317 337 311 
3 204 182 115 
3 145 250 170 
3 133 341 205 
3 223 199 168 
3 223 154 199 
3 89 176 211 
3 89 211 194 
3 190 177 197 
3 170 197 177 
3 168 219 192 
3 484 220 176 
3 191 434 461 
3 461 187 191 
3 190 197 337 
3 204 115 468 
3 472 193 209 
3 168 199 219 
3 220 211 176 
3 495 185 497 
3 490 201 480 
3 485 490 480 
3 122 206 261 
3 468 122 261 
3 145 133 250 
3 205 233 133 
3 451 218 457 
3 484 210 220 
3 186 195 184 
3 356 434 195 
3 194 495 497 
3 185 495 175 
3 196 222 166 
3 218 451 222 
3 193 457 218 
3 174 224 187 
3 407 158 217 
3 172 407 217 
3 206 172 217 
3 215 311 337 
3 170 250 197 
3 255 196 183 
3 174 480 224 
3 158 311 217 
3 209 193 243 
3 225 210 209 
3 191 187 224 
3 236 175 495 
3 311 215 217 
3 250 133 233 
3 213 214 234 
3 210 225 220 
3 195 434 191 
3 494 194 211 
3 495 194 494 
3 490 175 236 
3 197 388 337 
3 193 218 291 
3 209 243 225 
3 199 184 219 
3 282 313 184 
3 195 282 184 
3 211 220 492 
3 494 211 492 
3 217 215 242 
3 206 217 235 
3 468 261 294 
3 270 222 196 
3 220 225 227 
3 492 220 227 
3 195 247 260 
3 495 494 236 
3 201 248 480 
3 490 488 201 
3 235 217 242 
3 206 235 261 
3 388 215 337 
3 197 250 253 
3 258 255 204 
3 243 193 291 
3 192 275 214 
3 251 225 243 
3 225 251 252 
3 184 230 219 
3 184 313 230 
3 227 225 252 
3 480 467 224 
3 294 204 468 
3 283 270 196 
3 291 218 222 
3 195 191 247 
3 480 248 467 
3 201 488 248 
3 490 236 488 
3 215 388 242 
3 253 388 197 
3 214 262 234 
3 214 275 262 
3 192 219 275 
3 494 492 475 
3 494 488 236 
3 196 255 283 
3 205 213 289 
3 234 289 213 
3 191 256 247 
3 191 224 256 
3 488 494 475 
3 488 466 248 
3 271 388 253 
3 259 233 205 
3 283 255 268 
3 291 222 270 
3 219 244 275 
3 219 230 244 
3 195 260 282 
3 248 466 467 
3 235 242 269 
3 258 204 294 
3 253 250 264 
3 268 255 258 
3 259 265 233 
3 251 243 278 
3 251 278 272 
3 348 235 269 
3 261 235 348 
3 265 250 233 
3 259 205 289 
3 243 291 278 
3 473 252 471 
3 473 227 252 
3 466 488 475 
3 271 298 388 
3 234 257 289 
3 234 277 257 
3 275 244 198 
3 475 227 473 
3 475 492 227 
3 449 224 467 
3 242 388 298 
3 271 253 264 
3 250 265 287 
3 262 277 234 
3 251 471 252 
3 230 303 244 
3 247 409 260 
3 256 224 449 
3 325 283 268 
3 279 275 198 
3 244 303 198 
3 230 313 303 
3 247 256 409 
3 466 475 324 
3 269 242 423 
3 294 261 300 
3 277 345 257 
3 279 198 146 
3 272 471 251 
3 146 198 207 
3 303 207 198 
3 473 471 464 
3 475 473 324 
3 250 287 264 
3 257 345 289 
3 302 146 299 
3 279 146 302 
3 279 295 275 
3 376 282 260 
3 466 324 449 
3 466 449 467 
3 242 298 423 
3 271 264 298 
3 268 258 366 
3 346 278 291 
3 305 277 262 
3 288 305 262 
3 299 308 302 
3 295 279 302 
3 262 275 288 
3 256 449 331 
3 300 261 348 
3 289 304 259 
3 314 270 283 
3 291 270 346 
3 308 299 312 
3 288 275 295 
3 278 439 272 
3 146 207 299 
3 179 207 306 
3 282 376 313 
3 310 376 260 
3 310 260 409 
3 409 256 331 
3 298 264 318 
3 259 330 265 
3 304 330 259 
3 325 268 366 
3 304 289 345 
3 270 314 346 
3 278 346 439 
3 349 277 305 
3 295 302 308 
3 312 299 30 
3 333 15 7 
3 299 207 329 
3 454 471 272 
3 454 464 471 
3 179 329 207 
3 306 207 303 
3 343 306 303 
3 473 464 324 
3 318 264 266 
3 287 281 264 
3 325 314 283 
3 368 11 15 
3 312 30 39 
3 30 21 39 
3 21 7 15 
3 15 333 368 
3 7 21 320 
3 326 331 449 
3 298 297 423 
3 203 354 241 
3 354 203 130 
3 130 203 165 
3 203 241 229 
3 229 267 203 
3 266 264 281 
3 39 321 312 
3 21 11 39 
3 312 321 308 
3 11 21 15 
3 308 188 295 
3 368 333 365 
3 30 320 21 
3 295 188 288 
3 336 30 299 
3 329 336 299 
3 439 454 272 
3 313 343 303 
3 313 376 335 
3 449 324 326 
3 351 6 2 
3 6 327 2 
3 318 297 298 
3 318 266 241 
3 203 353 165 
3 241 267 229 
3 353 203 267 
3 266 281 267 
3 287 265 323 
3 307 345 277 
3 11 328 39 
3 39 328 321 
3 307 277 349 
3 305 344 349 
3 30 336 320 
3 189 288 188 
3 333 7 320 
3 285 288 189 
3 313 335 343 
3 269 423 436 
3 38 377 359 
3 300 348 338 
3 351 377 6 
3 38 27 377 
3 27 327 6 
3 240 241 354 
3 241 240 342 
3 130 360 95 
3 241 342 318 
3 130 165 360 
3 267 241 266 
3 463 258 294 
3 267 362 353 
3 362 267 281 
3 307 349 347 
3 321 99 308 
3 308 99 188 
3 426 454 439 
3 357 333 320 
3 285 305 288 
3 189 306 343 
3 443 326 324 
3 397 409 331 
3 38 359 46 
3 46 95 38 
3 377 27 6 
3 340 95 46 
3 340 354 130 
3 95 369 38 
3 340 130 95 
3 216 240 354 
3 294 300 389 
3 323 362 281 
3 463 366 258 
3 281 287 323 
3 265 330 323 
3 304 345 296 
3 11 350 328 
3 350 11 368 
3 147 188 99 
3 357 320 358 
3 189 188 147 
3 306 147 179 
3 343 285 189 
3 443 324 464 
3 409 397 310 
3 331 326 397 
3 359 377 382 
3 348 269 436 
3 53 340 46 
3 423 297 400 
3 38 369 27 
3 370 369 95 
3 370 95 360 
3 240 231 342 
3 300 338 389 
3 297 318 342 
3 367 2 327 
3 463 294 389 
3 304 399 330 
3 304 296 399 
3 314 442 346 
3 344 347 349 
3 47 99 321 
3 305 373 344 
3 329 47 336 
3 329 82 47 
3 179 82 329 
3 373 305 285 
3 82 179 147 
3 147 306 189 
3 29 382 377 
3 382 46 359 
3 382 53 46 
3 348 436 338 
3 371 340 53 
3 354 340 371 
3 216 354 371 
3 165 353 232 
3 395 353 362 
3 323 330 361 
3 330 379 361 
3 296 345 307 
3 82 99 47 
3 320 336 358 
3 82 147 99 
3 333 357 374 
3 334 373 285 
3 443 464 454 
3 285 343 335 
3 397 396 310 
3 377 351 5 
3 423 400 436 
3 400 297 386 
3 2 367 351 
3 297 342 386 
3 360 165 111 
3 353 395 232 
3 362 323 391 
3 314 325 442 
3 328 378 321 
3 47 321 378 
3 333 374 365 
3 373 402 344 
3 421 344 402 
3 357 358 380 
3 454 426 419 
3 443 454 419 
3 335 334 285 
3 396 376 310 
3 231 240 216 
3 389 338 384 
3 27 387 327 
3 232 111 165 
3 395 362 391 
3 330 399 379 
3 346 392 439 
3 392 426 439 
3 307 347 364 
3 350 378 328 
3 350 368 365 
3 358 378 350 
3 336 378 358 
3 336 47 378 
3 419 426 421 
3 402 419 421 
3 357 380 374 
3 381 335 376 
3 381 376 396 
3 326 443 396 
3 326 396 397 
3 377 5 29 
3 384 338 436 
3 150 371 54 
3 371 150 216 
3 351 367 5 
3 369 370 33 
3 27 369 387 
3 150 231 216 
3 360 54 370 
3 54 360 111 
3 327 387 367 
3 386 231 221 
3 231 386 342 
3 390 111 232 
3 323 361 391 
3 445 442 325 
3 442 392 346 
3 421 392 431 
3 426 392 421 
3 344 421 347 
3 350 380 358 
3 402 373 334 
3 381 419 402 
3 396 419 381 
3 443 419 396 
3 382 393 53 
3 54 371 53 
3 387 369 33 
3 370 54 33 
3 400 386 339 
3 150 221 231 
3 394 111 390 
3 366 453 325 
3 445 325 453 
3 365 374 350 
3 380 350 374 
3 381 402 334 
3 335 381 334 
3 29 393 382 
3 393 54 53 
3 54 393 33 
3 111 150 54 
3 463 389 398 
3 307 364 296 
3 421 364 347 
3 33 393 29 
3 18 387 29 
3 387 33 29 
3 411 400 339 
3 394 150 111 
3 221 150 394 
3 390 221 394 
3 401 386 221 
3 391 322 395 
3 322 391 361 
3 463 398 366 
3 453 366 398 
3 420 379 410 
3 410 379 399 
3 18 29 5 
3 436 424 384 
3 424 436 400 
3 18 367 387 
3 339 386 401 
3 254 221 390 
3 254 401 221 
3 401 372 339 
3 232 254 390 
3 395 254 232 
3 395 322 254 
3 412 361 379 
3 412 379 420 
3 435 441 420 
3 445 441 435 
3 453 441 445 
3 445 429 442 
3 442 431 392 
3 421 431 364 
3 18 5 367 
3 411 424 400 
3 411 339 372 
3 384 444 389 
3 398 389 444 
3 322 372 401 
3 254 322 401 
3 372 322 361 
3 410 435 420 
3 429 435 410 
3 429 445 435 
3 364 399 296 
3 442 429 431 
3 431 417 364 
3 453 398 444 
3 441 415 420 
3 429 410 417 
3 417 410 399 
3 364 417 399 
3 417 431 429 
3 361 412 372 
3 441 444 415 
3 453 444 441 
3 420 415 412 
3 444 384 424 
3 372 404 411 
3 415 404 372 
3 412 415 372 
3 415 444 404 
3 404 444 424 
3 424 411 404 
