v 0.027923 0.0194614 -0.0499793
v 0.0230509 0.0186993 -0.0416876
v 0.0289598 0.0108654 -0.0476752
v 0.0270688 0.0245634 -0.038689
v 0.0232003 0.0141906 -0.0362115
v 0.0323449 0.0200557 -0.0400933
v 0.0327561 0.0214256 -0.0377236
v 0.0292755 0.0273069 -0.0260517
v 0.00258652 0.032721 -0.0316537
v -0.00357 0.0337641 -0.0275711
v 0.0288385 0.0142574 -0.0332596
v -0.00242158 0.0217799 -0.030042
v -0.00398986 -0.083663 -0.0303632
v 0.02586 0.0148454 -0.027721
v 0.0214366 0.019525 -0.0287611
v 0.00330555 0.0307397 -0.0295645
v -0.00464094 0.0321707 -0.0264768
v 0.0272347 -0.0640696 -0.0324315
v 0.0272425 0.0149857 -0.0270176
v 0.0313556 -0.0474421 -0.0211479
v 0.0314279 -0.0653131 -0.0228619
v 0.00222672 0.0236202 -0.0250266
v 0.0375349 -0.057028 -0.0258909
v 0.0264042 -0.059502 -0.0243149
v -0.00478732 -0.0801357 -0.0278507
v -0.00110933 -0.0771488 -0.0165661
v 0.0291739 -0.0606795 -0.0138479
v 0.0227095 0.0260578 -0.0284778
v 0.00494562 0.0274566 -0.017259
v -0.00308353 0.0216193 -0.0190646
v -0.00481096 -0.0736859 -0.0268659
v -0.00118245 0.0352084 -0.0216205
v -0.00801384 0.0290105 -0.017912
v -0.00514903 0.0356024 -0.017418
v 0.00353494 0.0160493 -0.0130944
v -0.000570103 -0.0235676 -0.0119663
v 0.0338491 -0.00865265 -0.00871171
v 0.00836839 -0.029361 -0.012352
v 0.0364223 -0.0156961 -0.0048307
v -0.00922818 -0.00953435 -0.00666441
v -0.00665849 -0.0257136 -0.00674727
v -0.00742872 0.0212434 -0.00958624
v 0.0303517 -0.0310565 -0.0040058
v -0.00772881 0.0192684 -0.00432341
v 0.00839561 -0.0397274 -0.00318739
v 0.00169833 -0.0573826 -0.00569477
v 0.0403649 -0.0531723 -0.00355826
v -0.00804879 0.00221357 -0.00137206
v 0.0396719 -0.0540832 -0.00481675
v 0.0337866 -0.0306254 -0.000443908
v 0.0380445 -0.0105448 -0.00223262
v -0.011302 -0.05425 -0.00420896
v -0.011247 -0.0244807 0.00238741
v 0.0360594 -0.028994 0.00301858
v 0.0396535 -0.0136447 -0.000503031
v 0.0399725 -0.0195844 0.00400018
v -0.0122033 -0.0575649 0.0105658
v -0.0099764 -0.0658453 0.00394906
v -0.013069 -0.0476033 0.00277442
v -0.0131902 -0.0137489 0.00630299
v 0.0415144 -0.052786 0.00742494
v 0.0325421 0.0131893 0.00785332
v 0.0334783 0.0197272 0.00725975
v 0.0399 -0.0115537 0.0109962
v -0.00886108 -0.0387016 0.0138151
v 0.0328334 0.0104039 0.0127978
v -0.00202355 -0.0705595 0.0164051
v 0.00896336 -0.0743474 0.0133524
v 0.0395803 -0.0210196 0.0167683
v -0.00767676 -0.0339973 0.0140509
v 0.0420015 -0.0548572 0.0128979
v -0.011689 -0.0546574 0.0161433
v -0.0109321 -0.0259796 0.0118492
v 0.00136367 -0.0745041 0.0090945
v -0.00609655 0.0439918 0.0111009
v 0.00268458 -0.0737124 0.0171146
v 0.0308645 0.00817439 0.0182191
v 0.034484 0.0240893 0.0113164
v -0.00882282 -0.036651 0.0145329
v 0.0335019 0.0235889 0.0163681
v -0.00949374 0.0401618 0.0131559
v 0.0361851 -0.0276509 0.0235899
v 0.032008 0.0408152 0.0174752
v 0.0045105 0.0490601 0.0153912
v 0.015032 -0.0713159 0.018576
v 0.0410986 -0.0415708 0.0170938
v -0.00731956 0.0391861 0.0200573
v -0.00693042 -0.0313131 0.0194591
v -0.00872153 -0.0391205 0.0254457
v 0.0416495 -0.0574897 0.0178327
v 0.0355873 -0.00911866 0.0210274
v 0.0318786 0.0388699 0.0215642
v -0.0111369 -0.0525598 0.0204684
v 0.0328784 -0.00828224 0.0233708
v 0.0296543 0.00591023 0.0207303
v -0.00452382 -0.0192506 0.0234191
v 0.0234305 0.0478429 0.0229207
v 0.00103278 0.0473713 0.0236544
v -0.00431496 -0.0279471 0.0238874
v 0.0150751 0.0537937 0.0271222
v -0.00355944 -0.0279524 0.0265415
v 0.0295266 0.0328283 0.026588
v 0.0371701 -0.0573471 0.028424
v 0.0413932 -0.0512679 0.0227488
v 0.0335269 -0.0251814 0.026973
v 0.0226717 0.0479635 0.029135
v -0.000997475 0.0488341 0.0315733
v 0.0167677 -0.0679724 0.0292703
v -0.00178377 0.041078 0.0263007
v -0.00472166 0.0245754 -0.0368594
v 0.0162092 -0.06164 0.0335091
v 0.00398336 0.03265 -0.0376629
v 0.00088217 0.024401 -0.0397871
v -0.00321723 0.035364 -0.0485097
v -0.00177595 0.0358117 -0.0529505
v 0.000486472 0.0343843 -0.0490338
v -0.00655675 0.0319105 -0.0425327
v -0.00125598 0.0267257 -0.0511535
v -0.00444751 0.0281087 -0.0511133
v 0.000674584 0.0299281 -0.053876
v -0.00666598 0.0345177 -0.0632416
v 0.000551734 0.032831 -0.0640405
v 0.0200683 0.0276062 -0.0208396
v -0.00976616 -0.068659 -0.0235957
v 0.0385741 -0.0485078 -0.0176096
v 0.02948 0.030721 -0.0178856
v 0.0219726 0.0073385 -0.0144204
v 0.0302351 0.024338 -0.0211018
v 0.0371473 -0.0578926 -0.0207427
v 0.0084383 0.031416 -0.0157981
v 0.031651 -0.0416033 -0.0108602
v 0.037692 -0.0550693 -0.00988661
v 0.0276473 -0.0288806 -0.00773491
v 0.0287138 0.0178852 -0.0082653
v 0.0289319 -0.01131 -0.0125504
v -0.00799742 -0.0592649 -0.0123935
v 0.00108852 0.0012603 -0.0160289
v 0.0313332 -0.0600784 -0.0098368
v -0.00233473 -0.0573443 -0.011023
v -0.00940526 -0.0604504 -0.00944216
v 0.0325614 0.0258322 -0.0126309
v 0.0239129 0.0367989 -0.0126701
v 0.0214416 0.0415167 -0.00774881
v -0.000757041 0.0404333 -0.00809666
v -0.0046258 -0.00697978 -0.0126442
v -0.00935294 -0.0568729 -0.00695074
v 0.0013043 -0.073064 -0.0051041
v -0.00418435 -0.0720371 -0.00179991
v 0.0347266 -0.0402184 -0.00671699
v -0.0104272 0.0284745 -0.0108984
v 0.0302857 0.0319225 -0.0164049
v -0.00526355 -0.0716593 -0.00863188
v 0.0264029 0.0142363 -0.00525032
v 0.0341278 0.0219527 -0.00704023
v 0.0156639 0.0457639 0.00351593
v -0.0105324 -0.066536 -0.00294737
v 0.0334434 0.00191078 -0.00326464
v 0.0286634 0.0138712 -0.00193287
v 0.0327977 0.034131 -0.00734115
v 0.0337614 -0.0641666 -0.00221918
v 0.00828644 0.0428204 -0.00110868
v -0.0119333 0.0336259 -0.00202565
v 0.00312706 -0.0709326 -0.00969122
v 0.0367092 0.0280126 0.00421836
v -0.00373187 0.0139316 -0.00107222
v -0.00441304 -0.0370898 0.000192929
v 0.000264921 -0.0724855 0.00712426
v 0.0361088 -0.0622992 -0.00344237
v -0.00570448 0.0425505 0.000352813
v -0.0119291 0.0278263 -0.000361214
v -0.0113408 -0.00554487 0.00125125
v -0.00511081 -0.03792 0.00230115
v 0.0351899 0.0318581 0.00486724
v 0.00908154 -0.0734117 0.00542999
v 0.000965356 0.0466384 0.00834741
v 0.0314265 0.0460649 0.012213
v 0.00775078 0.0439532 0.00244112
v 0.0298579 0.0398344 -0.0011101
v -0.00964282 -0.0398268 0.00862926
v 0.0171997 -0.0618538 0.000724437
v -0.00552505 0.0136185 0.00451401
v 0.0413742 -0.0409439 0.00585668
v -0.00790712 -0.0345967 0.0115472
v -7.95108e-05 -0.0735704 0.0079823
v 0.0288494 -0.0721309 0.0161848
v -0.0117127 0.027948 0.00574823
v 0.00473635 0.0474715 0.0124316
v 0.0241067 0.0475328 0.00860651
v 0.0217747 0.0474427 0.0103943
v -0.0110119 0.0339552 0.00937089
v 0.0326986 -0.068924 0.00558168
v 0.0160029 -0.0682942 0.0101597
v 0.0373025 -0.0328747 0.0137566
v -0.00818627 0.0424891 0.00726831
v -0.00611783 0.0131421 0.01245
v -0.00858129 -0.0669101 0.0110285
v 0.0348872 -0.0683418 0.0167162
v -0.00698203 0.00271207 0.0172102
v -0.0118612 -0.00866312 0.0109385
v 0.029708 0.0450598 0.0140224
v -0.00775966 -0.0665148 0.0150535
v -0.00473612 0.0119321 0.0174731
v 0.0361744 -0.0645867 0.0242821
v -0.00946382 0.028692 0.0199978
v 0.00496241 -0.0732757 0.021573
v -0.00413456 -0.0093406 0.0222609
v 0.00321621 0.00258409 0.0255385
v 0.0294112 0.00784835 0.0216558
v 0.038809 -0.0360852 0.0279639
v 0.0340661 -0.023263 0.0261709
v -0.0067433 0.019267 0.0208341
v -0.00816979 -0.0619159 0.0227361
v 0.0317447 -0.0676588 0.0246124
v 0.0250421 0.00713056 0.0262737
v -0.00292537 0.0292025 0.0312618
v -0.00352487 0.0122038 0.0226285
v -0.00372892 -0.0574963 0.0297696
v 0.00281803 -0.0664886 0.0291784
v -0.000590997 0.0199782 0.031543
v 0.00246265 -0.0591507 0.0331863
v 0.011535 -0.059211 0.0345535
v 0.033361 -0.0387854 0.0343555
v -0.00396139 -0.0381226 0.0320626
v 0.00291152 0.0164798 0.0327842
v 0.0268334 0.0209135 0.029781
v 0.0215516 0.0336445 0.0362377
v 0.00365855 0.0282304 0.0373436
v -0.00374389 0.0461336 -0.0745835
v -0.00751058 0.0357727 -0.0723559
v 0.0209135 0.031437 0.0378671
v 0.00215923 0.0360786 -0.0698368
v 0.03202 0.0173468 -0.0498093
v 0.00293514 0.0329542 0.0403346
v 0.0269939 0.0174174 -0.0553078
v 0.0181205 0.0249159 0.0422544
v 0.0316076 0.0113791 -0.0506709
v 0.0271351 0.00948126 -0.0566076
v 0.0347788 0.0129651 -0.0643238
v 0.0280694 0.00876731 -0.0538788
v 0.00738195 0.021206 0.03907
v 0.0276111 0.0107628 -0.0661844
v 0.0319782 0.0216633 -0.0717741
v 0.0345692 0.0148132 -0.0657596
v 0.0142257 0.028124 0.0473964
v 0.0280214 0.0130361 -0.0711933
v 0.00354092 -0.0705185 -0.0161775
v -0.00375005 -0.0660868 -0.0247568
v 0.00404339 -0.0707169 -0.0172242
v 0.00308166 -0.0715016 -0.0221644
v 0.00257598 -0.0821823 -0.0225748
v 0.00304136 -0.0729575 -0.0228204
v 0.00339846 -0.0760947 -0.032626
v 0.00233916 -0.0784523 -0.0370282
v -0.00485881 -0.0711066 -0.0282806
v -0.0069123 -0.0798195 -0.0356296
v -0.00436818 -0.0862948 -0.0388324
v 0.00119531 -0.0822175 -0.0445724
v -0.00146698 -0.0900099 -0.0516245
v -0.00487251 -0.0807712 -0.0463027
v -0.002035 -0.0805825 -0.049437
v 0.000863995 -0.0838963 -0.0514537
v -0.00182899 -0.090056 -0.0522871
v 0.00265303 -0.0886591 -0.0589467
v -0.00682301 -0.0865155 -0.0564973
v -0.0045558 -0.0914624 -0.0589404
v -0.00290127 -0.0818188 -0.063397
v -0.00398731 -0.0877143 -0.0661354
v -0.00856467 -0.0803912 -0.0736289
v 0.00194411 -0.0869276 -0.0744299
v 0.0350142 -0.059807 -0.0396117
v 0.0323252 -0.0699737 -0.046053
v 0.0328349 -0.0684388 -0.0397685
v 0.0285882 -0.059867 -0.0362594
v 0.0355942 -0.0628546 -0.0464197
v 0.029829 -0.0655092 -0.0509273
v 0.0345115 -0.0705633 -0.0504949
v 0.0343561 -0.0631669 -0.0571461
v 0.0303499 -0.0705573 -0.0546831
v 0.0382609 -0.0700222 -0.0584183
v 0.0346606 -0.0719615 -0.0548478
v 0.0285096 -0.0690748 -0.0624075
v 0.0352244 -0.0717559 -0.0630036
v 0.0361647 -0.0691032 -0.0743882
v 0.02961 -0.0579963 -0.071515
v 0.038055 -0.0641554 -0.0678245
v -0.000449939 0.0634517 0.0383047
v -0.00254028 0.0510031 0.0440001
v -0.00277286 0.0519695 0.0404656
v -0.00291743 0.0551034 0.0423727
v -0.00347684 0.0612461 0.0392311
v 0.0107448 0.0622972 0.0450483
v 0.010505 0.052382 0.064993
v 0.001261 0.0632459 0.0384617
v -0.0055781 0.0608637 0.0491583
v 0.00602982 0.0482181 0.0646142
v 0.00554595 0.0635725 0.0417959
v 0.000887049 0.0501538 0.0629889
v -0.00294734 0.0489228 0.0525524
v 0.00838194 0.0646723 0.063474
v 0.0142463 0.0579968 0.0559455
v -0.0047606 0.055788 0.0645869
v 0.00755804 0.0525434 0.0672158
v 0.00453822 0.0582823 0.0695219
v -0.00597548 0.0540066 0.0580017
v -0.0015547 0.0551066 0.0665971
v 0.00293497 0.0617704 0.0700219
v -0.00314014 0.0639739 0.0392568
v 0.00229057 0.0608538 0.0701938
v 0.00511033 0.0703913 0.0561221
v 0.000829572 0.0705924 0.0469134
v -0.00877189 0.0619011 0.0539002
v -0.000648076 0.0563459 0.068066
v -0.0117496 0.0632916 0.057162
v 0.00263864 0.0693822 0.0512644
v 0.00411617 0.0688245 0.0660682
v -0.00900455 0.0582713 0.0616575
v 0.000582561 0.063129 0.0708614
v -0.00611505 0.0603359 0.0687456
v -0.00224186 0.0587448 0.0690459
v -0.01447 0.0622934 0.0437659
v -0.0120969 0.0636452 0.0576441
v -0.0125198 0.0626084 0.0645845
v -0.00215329 0.0634831 0.0707231
v -0.00247046 0.0764464 0.045663
v 0.00504213 0.0710817 0.0599884
v 0.00108127 0.074001 0.0583947
v -0.00616937 0.0716122 0.0390946
v -0.0121997 0.0629865 0.0663182
v 0.000628483 0.0740985 0.0626468
v -0.00715725 0.0803545 0.040569
v -0.00178777 0.0759382 0.0589427
v -0.000598993 0.065701 0.0712429
v -0.000581797 0.0719247 0.0680865
v -0.0125575 0.064509 0.0683661
v -0.00509166 0.0673027 0.0712847
v -0.00520688 0.0808571 0.0451646
v -0.0209244 0.0664842 0.0422168
v -0.0040035 0.0695426 0.0718742
v -0.00354504 0.0782054 0.0640941
v -0.0123189 0.0869884 0.05193
v -0.0195074 0.0686801 0.0392804
v -0.00632503 0.0743002 0.0711875
v -0.0187167 0.0649429 0.0687275
v -0.0107722 0.0697177 0.0710104
v -0.0240891 0.0676295 0.0451631
v -0.0125139 0.0861482 0.0460912
v -0.0165965 0.0682526 0.0749341
v -0.0176985 0.0660857 0.0707764
v -0.0119185 0.0710121 0.071034
v -0.00531679 0.0776869 0.0691102
v -0.0106675 0.0822091 0.0414518
v -0.0303213 0.0752402 0.0434692
v -0.00857436 0.0777249 0.0700959
v -0.00467399 0.0813099 0.0670327
v -0.0197941 0.0674682 0.0751045
v -0.0152481 0.0736627 0.0710154
v -0.00461795 0.0822038 0.0703919
v -0.0185425 0.069674 0.074762
v -0.0249546 0.0872234 0.0394513
v -0.00942918 0.0824452 0.0754852
v -0.00673416 0.0853227 0.0725407
v -0.0270637 0.0817248 0.0371328
v -0.0362808 0.083729 0.0315321
v 0.00540385 0.053885 0.0232939
v 0.0176788 0.0554 0.0352999
v 0.0195258 0.0548671 0.0383959
v 0.0194485 0.0520168 0.0413726
v 0.0155726 0.037489 0.0520686
v -0.0396769 0.0915434 0.03523
v 0.00841096 0.0243958 0.0428606
v -0.0404951 0.083837 0.0434297
v -0.0360872 0.0911103 0.0436754
v -0.000706189 0.044469 0.0491367
v 0.014903 0.0594121 0.0422106
v 0.0075413 0.0350745 0.0527382
v -0.0336666 0.0892419 0.0451517
v -0.0370517 0.085946 0.0468208
v 0.0105786 0.0327131 0.0520853
v 0.0175954 0.0525676 0.0472214
v 0.00379706 0.0412473 0.0540266
v -0.00711817 0.0554873 0.0563913
v 0.0137109 0.0356971 0.0540597
v 0.0125435 0.0618832 0.0493627
v 0.0159615 0.0519585 0.0530677
v -0.0246347 0.0678156 0.0549567
v -0.0184981 0.0653378 0.0551465
v 0.0105254 0.0650488 0.0551262
v -0.0182748 0.0662791 0.0585425
v -0.0346159 0.085374 0.0489365
v -0.0328951 0.0847242 0.0500724
v 0.0140444 0.0433519 0.0580821
v 0.0105493 0.0474764 0.0641408
v -0.00754802 0.0838956 0.0539912
v -0.0280577 0.0731186 0.0574087
v 0.003282 0.0440814 0.0581558
v 0.0106392 0.0395899 0.0587178
v -0.0159376 0.0661316 0.0629904
v 0.0122836 0.0516723 0.0617328
v -0.0280948 0.0730627 0.0595714
v -0.0214351 0.067067 0.0606175
v -0.0196999 0.0874619 0.0588451
v -0.0146504 0.0886732 0.0616203
v -0.0245615 0.0715559 0.0627997
v -0.0214669 0.0726266 0.0658868
v -0.00862628 0.0837183 0.0676345
v -0.0137062 0.0787066 0.0702512
v 0.0287173 -0.0346446 0.0358777
v 0.0261504 -0.0154494 0.0295907
v 0.0309621 -0.0291375 0.0321131
v 0.0214676 -0.0198568 0.0315109
v 0.0263642 -0.0415925 0.0371019
v 0.0328877 -0.0477295 0.0350807
v 0.0218389 -0.033202 0.0361953
v 0.0189843 0.013978 0.0347317
v 0.0289433 -0.0609707 0.0323371
v 0.0218521 -0.00340543 0.0283882
v 0.0186714 0.00116911 0.0287776
v 0.020695 -0.0459827 0.0373403
v 0.0205962 -0.0555753 0.0358901
v 0.0149558 0.0171446 0.0382735
v 0.000780121 -0.0506736 0.0342312
v 0.0199309 -0.0481681 0.0373236
v 0.0183199 -0.0399043 0.0373575
v 0.0129187 -0.00235233 0.0284763
v 0.00803503 0.00281108 0.0289042
v 0.014831 -0.0235139 0.0325388
v 0.0092796 -0.00525932 0.0283791
v 0.0113422 -0.0222531 0.0319419
v 0.00754727 0.0131603 0.0352259
v 0.00357733 -0.0387625 0.0356569
v 0.0139082 -0.0462256 0.0371722
v 0.00818447 -0.0160695 0.0297822
v 0.0126903 -0.0418028 0.0372121
v 0.0158734 -0.0375546 0.0369544
v 0.0102157 -0.0192353 0.0309116
v 0.00653537 0.0117778 0.0333904
v 0.0149168 -0.0358876 0.036705
v 0.0122873 -0.0504259 0.0367074
v 0.015868 -0.0255089 0.0337468
v 0.00906938 -0.0260787 0.0328431
v 0.00657572 -0.0493125 0.0362008
v 0.0102206 -0.0423184 0.037
v 0.00910314 -0.0607593 0.0335815
v 0.00707398 -0.0469419 0.0365331
v 0.00821151 -0.00910531 0.0285845
v 0.00354595 -0.0483043 0.0356114
v 0.00961291 -0.027105 0.0334559
v 0.000250941 -0.0324226 0.0324798
v 0.00304157 -0.018128 0.0281856
v 0.00312954 -0.0109787 0.0269002
v -0.000767664 -0.0439636 0.0341142
v 0.00176801 -0.058034 0.0327464
v 0.00392263 -0.0351692 0.0349007
v 0.0298931 -0.031887 -0.00493738
v 0.0247965 -0.0598098 -0.00509084
v 0.0233192 -0.0181466 -0.0147366
v 0.0315954 -0.0379423 -0.00656634
v 0.0207908 -0.0238897 -0.0135689
v 0.0247917 0.0140358 -0.0185871
v 0.0261842 -0.00773213 -0.0142162
v 0.0190724 -0.00227459 -0.0176271
v 0.0190395 -0.0421383 -0.00253215
v 0.0123177 0.0254074 -0.0173441
v 0.0190554 -0.0320053 -0.00956291
v 0.0163506 0.0218574 -0.0179678
v 0.0138658 -0.0286664 -0.0121124
v 0.0120452 -0.0125226 -0.0183869
v 0.0145959 0.00549053 -0.0185861
v 0.0216741 -0.0081357 -0.017021
v 0.0163519 -0.0465585 -0.00286244
v 0.0053527 -0.0649077 0.000408918
v 0.00773301 0.0118429 -0.0189823
v 0.0119031 -0.0431954 -0.00261017
v 0.018738 -0.054264 -0.00394396
v 0.00552147 0.029244 -0.0166053
v 0.0121923 -0.0236915 -0.0150446
v 0.00403048 -0.00131414 -0.0181323
v 0.0113413 -0.0460911 -0.00298204
v 0.00290206 0.01954 -0.0179542
v 0.00927847 -0.0553012 -0.00538192
v 0.00339665 -0.0640019 -0.0005155
v -0.00398367 -0.0465479 -0.00328013
v -0.00216242 -0.00721282 -0.0143676
v 0.00656119 -0.0190278 -0.0167545
v 0.0073678 -0.0553692 -0.00614758
v 0.00407139 -0.0412519 -0.00193582
v 0.00385184 -0.0575757 -0.00888673
f 231 229 228
f 245 242 243
f 284 283 281
f 269 267 268
f 285 283 284
f 269 268 266
f 245 243 241
f 242 245 243
f 122 231 228
f 122 229 231
f 285 281 283
f 269 266 267
f 268 267 266
f 229 122 228
f 284 282 285
f 229 122 121
f 122 229 115
f 121 115 229
f 245 238 243
f 267 266 263
f 281 285 282
f 282 284 279
f 238 241 243
f 284 281 277
f 266 267 264
f 279 284 277
f 238 245 234
f 241 234 245
f 267 265 264
f 267 263 265
f 119 121 122
f 260 263 266
f 279 281 282
f 115 120 122
f 119 122 120
f 277 281 275
f 241 238 239
f 234 241 237
f 237 241 239
f 264 260 266
f 239 238 236
f 262 265 263
f 281 279 280
f 115 121 119
f 280 279 276
f 239 234 237
f 262 264 265
f 278 275 281
f 276 281 280
f 277 275 274
f 234 1 238
f 277 276 279
f 281 276 278
f 239 1 234
f 260 261 263
f 117 115 119
f 236 238 232
f 1 232 238
f 260 264 259
f 258 264 262
f 278 276 275
f 120 115 118
f 263 258 262
f 118 119 120
f 261 258 263
f 232 3 236
f 261 260 259
f 264 258 259
f 116 118 115
f 239 236 3
f 119 118 117
f 3 1 239
f 274 276 277
f 259 257 261
f 115 117 114
f 1 3 2
f 259 258 256
f 261 257 258
f 274 271 276
f 275 276 271
f 118 116 112
f 1 2 4
f 232 1 4
f 115 112 116
f 6 3 232
f 274 275 270
f 257 256 258
f 257 259 253
f 273 270 275
f 112 115 114
f 3 5 2
f 273 275 271
f 117 118 110
f 274 272 271
f 253 256 257
f 118 112 113
f 259 256 254
f 254 253 259
f 255 254 256
f 118 113 110
f 117 112 114
f 4 6 232
f 6 5 3
f 5 6 11
f 273 271 272
f 4 7 6
f 11 6 7
f 256 253 250
f 5 28 2
f 10 112 117
f 113 112 12
f 15 28 5
f 274 270 272
f 110 113 12
f 117 110 10
f 4 2 28
f 255 256 254
f 10 9 112
f 4 8 7
f 8 11 7
f 11 15 5
f 12 10 110
f 270 273 20
f 272 18 273
f 256 250 13
f 15 11 14
f 9 12 112
f 254 256 25
f 252 253 254
f 256 13 25
f 12 9 16
f 23 272 270
f 18 20 273
f 10 16 9
f 272 23 21
f 252 250 253
f 20 23 270
f 16 22 12
f 14 11 19
f 21 18 272
f 8 19 11
f 32 16 10
f 12 17 10
f 15 14 19
f 28 8 4
f 17 32 10
f 32 22 16
f 254 251 252
f 25 31 254
f 20 18 24
f 251 254 249
f 13 250 25
f 18 21 24
f 250 252 251
f 247 254 31
f 247 248 254
f 22 32 29
f 249 254 248
f 30 17 12
f 26 31 25
f 128 19 8
f 32 17 34
f 12 22 30
f 28 15 123
f 250 251 249
f 19 123 15
f 23 20 125
f 21 23 27
f 29 30 22
f 8 28 123
f 24 21 27
f 128 8 123
f 250 26 25
f 125 129 23
f 248 250 249
f 20 24 131
f 27 131 24
f 459 19 128
f 129 27 23
f 459 123 19
f 479 30 29
f 17 30 33
f 31 124 247
f 250 248 26
f 126 128 123
f 463 468 472
f 33 34 17
f 468 469 472
f 123 459 468
f 472 484 477
f 463 465 468
f 465 123 468
f 248 247 246
f 32 475 29
f 123 465 463
f 30 479 472
f 247 124 139
f 34 475 32
f 472 458 467
f 472 467 484
f 26 124 31
f 479 463 472
f 468 461 469
f 479 29 463
f 459 127 468
f 151 126 123
f 472 469 458
f 29 130 463
f 151 123 463
f 131 125 20
f 468 460 461
f 248 152 26
f 128 127 459
f 130 29 475
f 458 476 467
f 33 30 150
f 27 129 138
f 152 124 26
f 246 163 248
f 128 126 151
f 127 460 468
f 484 467 476
f 142 151 463
f 456 458 469
f 472 35 30
f 477 484 483
f 472 477 483
f 127 128 134
f 163 152 248
f 142 463 130
f 460 469 461
f 129 125 132
f 130 475 34
f 151 134 128
f 466 476 458
f 483 137 472
f 133 456 469
f 124 136 139
f 458 464 466
f 137 35 472
f 246 247 163
f 133 469 460
f 34 33 150
f 127 37 460
f 145 484 36
f 483 484 145
f 460 135 133
f 150 162 34
f 30 35 150
f 131 132 125
f 139 163 247
f 145 137 483
f 141 134 151
f 476 466 484
f 484 38 36
f 130 34 142
f 129 132 138
f 140 136 124
f 152 140 124
f 466 38 484
f 460 37 135
f 34 144 142
f 42 150 35
f 34 162 144
f 133 458 456
f 132 131 149
f 133 135 37
f 139 136 140
f 134 153 127
f 42 35 165
f 27 138 455
f 455 131 27
f 41 40 145
f 36 41 145
f 139 140 146
f 35 137 165
f 142 144 143
f 145 165 137
f 36 38 41
f 133 464 458
f 133 37 39
f 153 37 127
f 139 487 46
f 141 153 134
f 139 486 487
f 466 464 38
f 149 49 132
f 140 152 146
f 41 38 45
f 464 457 38
f 131 455 149
f 138 132 160
f 147 152 163
f 155 143 144
f 37 153 158
f 139 46 163
f 40 165 145
f 159 151 142
f 154 153 141
f 38 457 45
f 155 142 143
f 485 46 487
f 464 133 457
f 163 46 481
f 146 482 139
f 152 147 148
f 133 454 457
f 50 49 149
f 457 149 455
f 141 151 154
f 149 457 50
f 486 139 482
f 39 43 133
f 455 138 160
f 454 43 457
f 152 52 146
f 160 132 168
f 165 44 42
f 43 454 133
f 148 156 152
f 487 486 485
f 154 151 159
f 49 168 132
f 44 150 42
f 486 480 485
f 50 457 43
f 50 43 39
f 142 155 159
f 41 45 166
f 478 474 480
f 474 471 480
f 39 37 51
f 457 455 474
f 486 166 45
f 45 457 462
f 158 157 37
f 157 51 37
f 162 150 44
f 478 480 486
f 462 457 474
f 155 178 159
f 478 470 474
f 481 46 485
f 462 474 470
f 40 48 165
f 44 170 162
f 153 154 158
f 45 462 473
f 471 474 180
f 45 473 478
f 482 146 52
f 45 478 486
f 473 462 478
f 178 164 159
f 478 462 470
f 166 486 482
f 52 152 156
f 180 474 455
f 144 162 169
f 51 54 39
f 54 50 39
f 144 161 155
f 164 154 159
f 480 471 485
f 40 41 53
f 166 53 41
f 158 51 157
f 194 169 162
f 47 49 50
f 171 48 40
f 158 154 62
f 168 191 160
f 166 482 52
f 148 147 167
f 62 51 158
f 485 471 481
f 161 144 177
f 455 160 191
f 40 53 171
f 175 177 144
f 177 155 161
f 191 180 455
f 171 165 48
f 164 62 154
f 52 172 166
f 194 162 170
f 169 175 144
f 165 170 44
f 51 62 55
f 178 173 164
f 51 55 54
f 166 183 53
f 471 163 481
f 165 171 181
f 172 183 166
f 163 471 174
f 156 59 52
f 178 155 176
f 163 167 147
f 165 186 170
f 52 59 179
f 49 191 168
f 148 167 156
f 179 172 52
f 47 50 182
f 193 182 50
f 164 173 78
f 180 192 471
f 167 58 156
f 194 175 169
f 174 167 163
f 47 191 49
f 179 183 172
f 155 177 188
f 176 155 188
f 471 192 174
f 156 57 59
f 193 50 54
f 171 53 60
f 189 188 177
f 186 165 181
f 184 67 167
f 174 184 167
f 182 61 47
f 47 197 191
f 183 60 53
f 176 173 178
f 156 58 57
f 164 63 62
f 56 54 55
f 186 194 170
f 192 68 174
f 183 179 65
f 55 62 56
f 78 63 164
f 54 56 193
f 180 191 185
f 187 189 177
f 71 47 61
f 63 66 62
f 62 64 56
f 59 65 179
f 180 185 192
f 175 187 177
f 60 181 171
f 71 61 182
f 195 186 181
f 64 62 66
f 67 58 167
f 197 47 71
f 190 194 186
f 181 60 195
f 60 183 73
f 195 60 199
f 57 65 59
f 196 57 58
f 67 196 58
f 176 78 173
f 68 74 174
f 74 184 174
f 176 188 200
f 66 63 78
f 190 186 81
f 75 175 194
f 189 200 188
f 193 56 64
f 66 69 64
f 81 194 190
f 185 85 192
f 69 193 64
f 176 200 83
f 80 78 176
f 57 72 65
f 73 199 60
f 70 73 183
f 65 70 183
f 68 192 85
f 196 72 57
f 74 67 184
f 75 187 175
f 73 70 88
f 195 204 186
f 90 197 71
f 197 185 191
f 75 194 81
f 79 70 65
f 72 79 65
f 71 182 86
f 66 78 80
f 198 195 199
f 86 90 71
f 198 202 195
f 88 199 73
f 80 77 66
f 187 75 84
f 77 91 66
f 69 66 91
f 189 187 84
f 81 84 75
f 201 72 196
f 76 67 74
f 68 76 74
f 88 70 79
f 72 201 212
f 197 90 203
f 201 196 67
f 193 86 182
f 83 80 176
f 88 198 199
f 193 69 82
f 84 200 189
f 203 185 197
f 81 186 87
f 204 195 202
f 202 211 204
f 86 193 82
f 92 83 200
f 88 79 72
f 84 81 87
f 72 212 93
f 87 186 204
f 67 212 201
f 88 72 89
f 91 77 95
f 88 96 198
f 80 95 77
f 84 364 200
f 96 206 198
f 93 89 72
f 67 76 205
f 68 85 205
f 213 185 203
f 76 68 205
f 86 104 90
f 200 97 92
f 210 82 69
f 205 212 67
f 82 104 86
f 88 89 99
f 83 92 80
f 84 87 98
f 104 82 209
f 80 92 208
f 88 99 96
f 91 95 94
f 208 95 80
f 198 206 207
f 200 364 100
f 69 91 210
f 94 210 91
f 87 204 98
f 100 97 200
f 210 209 82
f 216 202 198
f 98 364 84
f 207 216 198
f 208 94 95
f 205 85 108
f 202 216 211
f 104 203 90
f 98 204 109
f 108 85 185
f 208 92 102
f 215 109 204
f 214 208 102
f 97 102 92
f 212 89 93
f 99 89 101
f 107 98 109
f 98 293 364
f 204 211 215
f 208 210 94
f 213 108 185
f 96 450 206
f 212 205 218
f 101 449 99
f 205 108 218
f 100 106 97
f 206 445 207
f 215 211 216
f 208 408 210
f 99 449 96
f 450 445 206
f 89 212 223
f 209 210 105
f 408 105 210
f 218 217 212
f 104 103 203
f 102 225 214
f 445 427 207
f 449 450 96
f 417 208 214
f 223 212 217
f 427 425 207
f 416 208 417
f 207 219 216
f 103 213 203
f 216 219 215
f 106 102 97
f 208 416 408
f 108 213 415
f 223 101 89
f 449 445 450
f 286 293 98
f 219 207 425
f 213 103 415
f 424 425 427
f 209 103 104
f 108 220 218
f 427 417 424
f 414 417 214
f 427 416 417
f 449 432 445
f 424 417 425
f 445 416 427
f 214 225 414
f 219 425 436
f 410 408 416
f 103 209 412
f 105 408 409
f 106 225 102
f 432 416 445
f 107 286 98
f 209 105 409
f 448 435 101
f 435 410 416
f 417 429 425
f 409 408 410
f 435 449 101
f 219 436 224
f 449 435 432
f 432 435 416
f 223 448 101
f 217 451 223
f 412 415 103
f 220 217 218
f 409 222 209
f 222 412 209
f 108 221 443
f 226 225 106
f 428 410 435
f 111 221 108
f 415 111 108
f 220 452 217
f 425 429 436
f 224 215 219
f 440 435 448
f 226 414 225
f 426 410 428
f 440 428 435
f 109 288 107
f 443 220 108
f 223 451 448
f 421 451 217
f 447 440 448
f 447 428 440
f 366 226 106
f 227 109 215
f 407 409 410
f 436 215 224
f 452 421 217
f 451 430 448
f 447 426 428
f 447 410 426
f 447 439 410
f 222 409 407
f 100 366 106
f 452 220 421
f 419 111 415
f 448 439 447
f 421 446 451
f 430 453 448
f 363 359 362
f 293 366 364
f 453 439 448
f 415 412 419
f 446 421 220
f 412 222 411
f 436 227 215
f 100 364 365
f 420 240 414
f 430 439 453
f 407 410 439
f 366 100 365
f 414 429 417
f 443 221 220
f 420 414 235
f 221 446 220
f 419 438 111
f 429 227 436
f 441 451 446
f 364 366 365
f 407 439 413
f 430 437 439
f 221 441 446
f 362 352 363
f 111 438 221
f 444 430 451
f 221 444 441
f 444 451 441
f 411 222 407
f 437 413 439
f 414 240 429
f 226 230 414
f 430 442 437
f 221 438 444
f 437 407 413
f 442 430 444
f 240 227 429
f 288 286 107
f 438 442 444
f 433 434 437
f 227 288 109
f 442 433 437
f 419 431 438
f 359 363 369
f 438 433 442
f 411 407 437
f 423 437 434
f 412 418 419
f 233 288 227
f 412 411 418
f 235 414 230
f 431 433 438
f 240 233 227
f 422 423 434
f 411 437 423
f 433 422 434
f 419 433 431
f 419 418 422
f 422 433 419
f 418 423 422
f 418 411 423
f 226 366 230
f 289 290 286
f 352 362 345
f 289 286 288
f 371 363 352
f 374 293 291
f 291 293 286
f 362 351 341
f 420 235 240
f 341 337 362
f 307 341 327
f 286 290 307
f 371 372 369
f 233 287 288
f 341 330 327
f 367 230 366
f 363 371 369
f 289 288 294
f 345 362 337
f 341 351 330
f 366 293 374
f 367 235 230
f 359 369 372
f 294 288 287
f 340 362 359
f 362 340 346
f 294 290 289
f 307 310 286
f 307 327 310
f 320 341 307
f 233 240 370
f 366 374 379
f 240 235 370
f 367 366 379
f 351 336 330
f 362 346 351
f 330 324 327
f 359 372 376
f 291 286 296
f 296 286 310
f 235 367 379
f 294 307 290
f 359 376 340
f 307 294 311
f 235 368 244
f 244 370 235
f 374 291 383
f 371 376 372
f 341 320 337
f 287 233 294
f 377 376 371
f 379 368 235
f 373 294 233
f 377 340 376
f 337 320 345
f 324 330 331
f 383 379 374
f 351 346 336
f 375 233 370
f 310 314 296
f 244 375 370
f 377 371 352
f 331 330 336
f 307 313 320
f 336 346 340
f 313 307 311
f 294 373 298
f 385 377 352
f 375 244 378
f 336 393 331
f 368 378 244
f 375 373 233
f 321 345 320
f 373 375 380
f 336 340 393
f 389 340 377
f 380 298 373
f 294 298 381
f 387 383 291
f 327 314 310
f 291 296 314
f 327 324 331
f 381 311 294
f 391 382 368
f 378 368 382
f 291 314 387
f 314 309 387
f 368 379 391
f 320 313 321
f 390 340 389
f 385 352 345
f 377 385 389
f 383 384 379
f 345 321 386
f 300 383 387
f 300 384 383
f 385 345 386
f 386 321 385
f 388 385 321
f 380 381 298
f 384 391 379
f 340 390 401
f 385 390 389
f 309 314 325
f 390 399 401
f 340 339 393
f 331 393 339
f 381 395 304
f 390 385 394
f 325 314 326
f 391 384 300
f 390 394 399
f 382 375 378
f 381 380 395
f 381 313 311
f 380 375 395
f 401 402 340
f 391 396 382
f 314 327 331
f 399 394 385
f 396 395 375
f 397 388 321
f 382 396 375
f 340 402 339
f 387 299 300
f 326 314 331
f 387 309 325
f 397 385 388
f 391 300 392
f 322 397 321
f 316 321 313
f 401 399 402
f 301 304 395
f 322 321 316
f 387 325 299
f 316 313 381
f 325 326 331
f 399 385 400
f 392 396 391
f 304 301 381
f 402 399 403
f 292 398 300
f 397 400 385
f 331 339 329
f 400 403 399
f 339 402 354
f 392 300 398
f 395 396 295
f 402 403 404
f 381 301 316
f 392 295 396
f 400 397 403
f 402 404 405
f 322 328 397
f 392 398 292
f 402 405 354
f 300 299 292
f 325 331 329
f 315 299 325
f 395 295 297
f 395 297 301
f 334 397 328
f 397 404 403
f 315 325 329
f 350 339 354
f 405 404 406
f 322 316 301
f 329 339 315
f 299 303 292
f 297 295 301
f 343 397 334
f 343 404 397
f 392 292 295
f 348 406 404
f 295 292 302
f 301 302 305
f 302 301 295
f 318 322 301
f 339 333 315
f 312 301 305
f 405 357 354
f 302 292 303
f 328 322 318
f 319 301 312
f 299 315 306
f 404 343 348
f 299 306 303
f 339 338 333
f 305 302 303
f 339 350 342
f 305 303 312
f 301 319 318
f 332 315 338
f 334 328 318
f 317 315 332
f 354 353 350
f 332 334 318
f 338 315 333
f 319 317 318
f 356 406 348
f 323 318 317
f 303 306 312
f 308 312 306
f 312 308 319
f 335 334 332
f 306 315 317
f 361 357 405
f 306 319 308
f 338 339 342
f 319 306 317
f 334 338 343
f 405 406 360
f 323 332 318
f 356 353 406
f 344 343 338
f 350 353 356
f 317 332 323
f 405 360 361
f 357 353 354
f 358 356 348
f 334 335 338
f 338 335 332
f 343 344 348
f 350 349 344
f 348 344 349
f 342 344 338
f 344 342 350
f 406 353 360
f 358 348 355
f 361 360 357
f 350 347 349
f 353 357 360
f 348 349 347
f 348 347 355
f 350 356 358
f 347 350 355
f 355 350 358
