v 0.728599 0.624907 0.61386
v 0.656617 0.664631 0.450395
v 0.448251 0.293863 0.521901
v 0.468037 0.180114 0.588561
v 0.398674 0.161485 0.552627
v 0.423833 0.403692 0.407892
v 0.390628 0.430701 0.43654
v 0.552609 0.74805 0.557501
v 0.686407 0.630869 0.456927
v 0.494827 0.836075 0.57686
v 0.479894 0.878563 0.543922
v 0.469432 0.632883 0.40832
v 0.41547 0.598365 0.451588
v 0.526109 0.159906 0.576488
v 0.431418 0.715786 0.45284
v 0.70664 0.632854 0.624987
v 0.564119 0.431697 0.372161
v 0.576199 0.255522 0.411613
v 0.58609 0.834186 0.447593
v 0.517075 0.214693 0.507864
v 0.37749 0.165819 0.493824
v 0.526688 0.893687 0.538794
v 0.697774 0.661575 0.567418
v 0.330382 0.616 0.589557
v 0.544505 0.385392 0.532139
v 0.580487 0.710066 0.463591
v 0.555339 0.958565 0.486111
v 0.289562 0.657648 0.602686
v 0.564583 0.381849 0.4126
v 0.449996 0.166483 0.507598
v 0.660898 0.627125 0.560345
v 0.424563 0.159927 0.483398
v 0.449341 0.847463 0.539895
v 0.460884 0.42827 0.365864
v 0.415183 0.464232 0.55075
v 0.516592 0.17145 0.441284
v 0.589016 0.410741 0.417109
v 0.595621 0.21968 0.42121
v 0.508307 0.39457 0.415854
v 0.428667 0.347306 0.413743
v 0.495014 0.424542 0.377459
v 0.489894 0.192006 0.464378
v 0.502109 0.49489 0.595836
v 0.320377 0.570357 0.508981
v 0.539011 0.871322 0.540786
v 0.53027 0.18675 0.587271
v 0.516358 0.173294 0.556014
v 0.509108 0.169331 0.512328
v 0.27079 0.653239 0.581698
v 0.654138 0.620203 0.612478
v 0.507844 0.767317 0.552951
v 0.271601 0.626377 0.614559
v 0.561538 0.44542 0.362546
v 0.520932 0.959184 0.516513
v 0.675971 0.571093 0.518099
v 0.594379 0.164982 0.428959
v 0.514621 0.735936 0.581352
v 0.422868 0.640238 0.51022
v 0.677529 0.646958 0.505608
v 0.587857 0.596652 0.499684
v 0.382898 0.390099 0.466877
v 0.573199 0.215167 0.53409
v 0.337241 0.646811 0.438367
v 0.470672 0.176771 0.423844
v 0.564044 0.650444 0.422663
v 0.45107 0.711997 0.535313
v 0.282371 0.600526 0.497066
v 0.398519 0.236674 0.423661
v 0.285156 0.632889 0.625608
v 0.575577 0.797112 0.465837
v 0.53374 0.627784 0.409053
v 0.619841 0.165604 0.537267
v 0.480069 0.302514 0.498833
v 0.426177 0.715505 0.471912
v 0.388831 0.184936 0.528738
v 0.557279 0.293987 0.524569
v 0.352602 0.606732 0.437256
v 0.550605 0.840752 0.540295
v 0.462187 0.737491 0.577269
v 0.435601 0.33412 0.523655
v 0.558846 0.340214 0.521933
v 0.268247 0.635976 0.58183
v 0.490838 0.345904 0.462118
v 0.619454 0.463099 0.475158
v 0.612889 0.429305 0.444243
v 0.536064 0.928205 0.39126
v 0.567893 0.165648 0.416059
v 0.594468 0.600955 0.475279
v 0.478703 0.247134 0.433946
v 0.439208 0.374387 0.413727
v 0.687245 0.63322 0.602424
v 0.335074 0.627132 0.561815
v 0.577434 0.370028 0.523869
v 0.52527 0.162576 0.440691
v 0.486563 0.824602 0.551099
v 0.557564 0.682697 0.521406
v 0.617785 0.177687 0.529225
v 0.537767 0.725593 0.567745
v 0.564922 0.80136 0.436915
v 0.57093 0.701187 0.498487
v 0.560216 0.774943 0.565618
v 0.462464 0.769258 0.543228
v 0.448529 0.804798 0.523143
v 0.432005 0.444989 0.362456
v 0.355019 0.621444 0.517212
v 0.436456 0.755138 0.542287
v 0.71805 0.638302 0.603163
v 0.394061 0.353208 0.506411
v 0.58015 0.811379 0.431362
v 0.325204 0.629114 0.591707
v 0.52712 0.746226 0.573118
v 0.505831 0.855074 0.571104
v 0.600609 0.601983 0.468525
v 0.562619 0.467846 0.359704
v 0.320025 0.631943 0.627984
v 0.527004 0.179069 0.428712
v 0.716922 0.63221 0.596931
v 0.589821 0.332095 0.516031
v 0.395566 0.173252 0.561123
v 0.465223 0.701648 0.542083
v 0.439058 0.889164 0.508832
v 0.512261 0.837613 0.572167
v 0.447736 0.489889 0.583233
v 0.537861 0.163275 0.477423
v 0.448799 0.752874 0.550405
v 0.537997 0.602282 0.559624
v 0.696529 0.642084 0.608436
v 0.707005 0.587923 0.49398
v 0.454358 0.487617 0.360024
v 0.535789 0.405412 0.544965
v 0.611221 0.667927 0.497456
v 0.498463 0.367037 0.495156
v 0.414933 0.829409 0.460621
v 0.371681 0.598503 0.494947
v 0.573354 0.707431 0.44807
v 0.681748 0.624862 0.623195
v 0.687796 0.633262 0.631102
v 0.307362 0.629903 0.628792
v 0.32566 0.649885 0.591292
v 0.712651 0.652159 0.612889
v 0.737037 0.631838 0.611723
v 0.657058 0.611312 0.606688
v 0.279452 0.642388 0.601085
v 0.300627 0.659223 0.590951
v 0.346032 0.616512 0.613303
v 0.261492 0.635947 0.607451
v 0.338471 0.613877 0.609216
v 0.34898 0.621551 0.58918
v 0.2905 0.631554 0.601187
v 0.674336 0.631999 0.58968
v 0.666228 0.640433 0.582694
v 0.277594 0.627381 0.594464
v 0.306713 0.635161 0.602896
v 0.678782 0.652006 0.609258
v 0.467654 0.161125 0.579736
v 0.525759 0.525753 0.584908
v 0.670523 0.61646 0.581761
v 0.328582 0.646233 0.576479
v 0.314443 0.659322 0.596777
v 0.680271 0.657734 0.586904
v 0.524374 0.802354 0.575225
v 0.574161 0.169225 0.580937
v 0.559619 0.180649 0.579677
v 0.331343 0.613962 0.565395
v 0.52715 0.755106 0.575076
v 0.462903 0.806863 0.56624
v 0.424809 0.162746 0.574699
v 0.424708 0.179808 0.581533
v 0.445853 0.169223 0.576127
v 0.517319 0.182497 0.580296
v 0.477068 0.191083 0.579675
v 0.585727 0.180859 0.572381
v 0.515384 0.435836 0.573751
v 0.703278 0.604584 0.581076
v 0.671426 0.610127 0.569518
v 0.731155 0.643148 0.57536
v 0.291879 0.662757 0.570137
v 0.565018 0.161582 0.566089
v 0.322821 0.64709 0.54357
v 0.539063 0.767681 0.586681
v 0.726046 0.625156 0.586582
v 0.670207 0.644603 0.545018
v 0.442494 0.792684 0.551515
v 0.456572 0.764253 0.585102
v 0.485391 0.845679 0.567744
v 0.462913 0.4168 0.554675
v 0.443315 0.598737 0.54494
v 0.476852 0.608085 0.561434
v 0.664292 0.634207 0.561308
v 0.468391 0.161246 0.538597
v 0.481444 0.164964 0.572412
v 0.531981 0.161035 0.557072
v 0.410481 0.513245 0.546289
v 0.459984 0.599807 0.555221
v 0.315448 0.609195 0.582851
v 0.721559 0.609321 0.512541
v 0.54653 0.640519 0.558398
v 0.440837 0.639848 0.550735
v 0.564401 0.750446 0.543198
v 0.45474 0.222866 0.526629
v 0.557697 0.481323 0.57857
v 0.566734 0.639969 0.546053
v 0.727222 0.651529 0.580786
v 0.499449 0.675158 0.549472
v 0.540534 0.746668 0.541898
v 0.458177 0.749156 0.539813
v 0.519114 0.848689 0.548059
v 0.606377 0.167055 0.560736
v 0.605135 0.19374 0.523646
v 0.542795 0.219159 0.527158
v 0.562683 0.198235 0.554336
v 0.508167 0.69877 0.55126
v 0.460996 0.682787 0.540688
v 0.554151 0.754703 0.550674
v 0.449941 0.754632 0.556482
v 0.48001 0.842706 0.548023
v 0.493892 0.187176 0.516118
v 0.430606 0.199279 0.551253
v 0.522818 0.193224 0.56844
v 0.280959 0.593137 0.544796
v 0.535254 0.705913 0.541075
v 0.499424 0.746714 0.552776
v 0.500025 0.753887 0.549219
v 0.540606 0.762184 0.538856
v 0.536055 0.769771 0.542767
v 0.563675 0.779661 0.550653
v 0.509399 0.822203 0.553589
v 0.485822 0.182936 0.560916
v 0.593869 0.438371 0.533717
v 0.436674 0.74316 0.516615
v 0.467903 0.763622 0.539179
v 0.532656 0.819362 0.539199
v 0.495473 0.85952 0.540476
v 0.477588 0.900815 0.532787
v 0.50021 0.884253 0.537518
v 0.463431 0.214831 0.530906
v 0.586493 0.497471 0.554027
v 0.690666 0.572742 0.505108
v 0.561973 0.735077 0.52763
v 0.441869 0.882629 0.524801
v 0.561482 0.867781 0.518663
v 0.554294 0.166571 0.508306
v 0.570934 0.603249 0.533489
v 0.553158 0.815274 0.522831
v 0.527141 0.905785 0.528853
v 0.596292 0.155723 0.511322
v 0.619821 0.171047 0.517328
v 0.592501 0.289329 0.516334
v 0.418778 0.217598 0.530107
v 0.57696 0.310752 0.529989
v 0.454389 0.346792 0.520304
v 0.308253 0.643221 0.506385
v 0.562068 0.884384 0.510699
v 0.403517 0.158333 0.490211
v 0.567196 0.345729 0.522157
v 0.387454 0.494019 0.513307
v 0.654447 0.605952 0.53441
v 0.65376 0.629293 0.522506
v 0.703717 0.624718 0.476238
v 0.673952 0.6447 0.517131
v 0.559795 0.7286 0.517948
v 0.439012 0.827797 0.510051
v 0.469039 0.163989 0.506386
v 0.505796 0.188477 0.493798
v 0.491574 0.972789 0.508439
v 0.379234 0.192773 0.499274
v 0.276156 0.624978 0.52002
v 0.431825 0.658616 0.515737
v 0.428557 0.703645 0.495777
v 0.523453 0.983891 0.490481
v 0.379874 0.166064 0.536015
v 0.495334 0.185037 0.496686
v 0.407207 0.292396 0.517545
v 0.612724 0.47328 0.511966
v 0.341524 0.638723 0.513512
v 0.632889 0.656417 0.503541
v 0.513716 0.211298 0.496909
v 0.526653 0.34923 0.50906
v 0.493686 0.373594 0.507762
v 0.380417 0.468015 0.474193
v 0.591533 0.598376 0.479466
v 0.603598 0.648053 0.500986
v 0.397441 0.676021 0.497692
v 0.558302 0.78971 0.520135
v 0.478824 0.987387 0.484665
v 0.623331 0.167434 0.494376
v 0.484194 0.214019 0.504458
v 0.583479 0.640639 0.505536
v 0.608522 0.60766 0.489167
v 0.392895 0.642654 0.501669
v 0.404975 0.569856 0.489124
v 0.415369 0.613682 0.492508
v 0.455162 0.957761 0.501342
v 0.526072 0.162564 0.470043
v 0.506933 0.349271 0.460984
v 0.689138 0.645109 0.486711
v 0.356464 0.665736 0.493595
v 0.577632 0.711342 0.475624
v 0.573307 0.729152 0.475818
v 0.44193 0.934261 0.492922
v 0.596384 0.157769 0.479386
v 0.608695 0.518272 0.490529
v 0.314503 0.577705 0.479332
v 0.402409 0.610522 0.483996
v 0.570282 0.854923 0.483359
v 0.298247 0.579623 0.494675
v 0.300743 0.60491 0.464624
v 0.39348 0.601906 0.463594
v 0.327323 0.654468 0.456493
v 0.41119 0.700855 0.47962
v 0.426616 0.811231 0.468707
v 0.426518 0.846441 0.471394
v 0.548138 0.979724 0.464706
v 0.504185 0.985982 0.492025
v 0.619966 0.171171 0.46793
v 0.401103 0.526934 0.432321
v 0.407698 0.599373 0.473878
v 0.429588 0.783618 0.44951
v 0.404591 0.15892 0.448438
v 0.659798 0.583486 0.460301
v 0.677497 0.644603 0.455584
v 0.430276 0.709305 0.445097
v 0.582463 0.832792 0.462811
v 0.569875 0.940005 0.462261
v 0.45985 0.985933 0.452066
v 0.51029 0.199502 0.468175
v 0.500118 0.359957 0.46674
v 0.607476 0.492214 0.439307
v 0.696669 0.587312 0.476832
v 0.656968 0.668304 0.466246
v 0.3636 0.682912 0.462555
v 0.429464 0.936758 0.459584
v 0.48294 0.995596 0.436219
v 0.380383 0.217209 0.443251
v 0.334572 0.583603 0.46366
v 0.413351 0.611384 0.445006
v 0.568225 0.714016 0.447113
v 0.352328 0.581047 0.475054
v 0.332537 0.617884 0.439066
v 0.687379 0.606702 0.455132
v 0.425707 0.793467 0.450084
v 0.420113 0.807754 0.433696
v 0.426788 0.844888 0.452791
v 0.572502 0.856366 0.450206
v 0.511179 0.997509 0.456249
v 0.475509 0.198607 0.433118
v 0.386863 0.389541 0.449431
v 0.590602 0.605865 0.450801
v 0.57554 0.797143 0.445096
v 0.469143 0.161722 0.439862
v 0.4862 0.166406 0.462489
v 0.517591 0.361519 0.436248
v 0.652593 0.614683 0.434727
v 0.581637 0.597931 0.446074
v 0.592653 0.620361 0.436941
v 0.656055 0.639135 0.433866
v 0.640777 0.655775 0.429891
v 0.61206 0.676573 0.432224
v 0.40557 0.69601 0.446498
v 0.417056 0.833425 0.437401
v 0.565867 0.946841 0.429772
v 0.547332 0.975594 0.428418
v 0.446405 0.155264 0.433959
v 0.564369 0.155616 0.432308
v 0.396544 0.17228 0.43209
v 0.417377 0.178318 0.412217
v 0.481195 0.357416 0.434753
v 0.43886 0.616834 0.426798
v 0.37364 0.672119 0.432971
v 0.555326 0.68592 0.4255
v 0.563256 0.789538 0.438223
v 0.57837 0.828356 0.43122
v 0.432859 0.838016 0.438689
v 0.46233 0.980597 0.424671
v 0.521112 0.198024 0.438088
v 0.496143 0.393538 0.422579
v 0.438443 0.68832 0.429418
v 0.417177 0.823503 0.434267
v 0.436954 0.826371 0.431746
v 0.422954 0.823709 0.428469
v 0.435654 0.960848 0.447575
v 0.581913 0.158216 0.436199
v 0.424702 0.159946 0.42383
v 0.540214 0.166771 0.423468
v 0.419061 0.382444 0.417585
v 0.374216 0.628924 0.427795
v 0.445191 0.714202 0.430868
v 0.438157 0.812991 0.431705
v 0.574067 0.812604 0.42914
v 0.563721 0.828737 0.433145
v 0.574926 0.823232 0.429314
v 0.559111 0.817356 0.430205
v 0.469063 0.16554 0.430456
v 0.60357 0.177876 0.429012
v 0.4568 0.360659 0.417035
v 0.464844 0.388161 0.412817
v 0.594136 0.385275 0.424698
v 0.620693 0.637221 0.42433
v 0.383546 0.664299 0.426301
v 0.426112 0.63204 0.429577
v 0.369493 0.645091 0.425002
v 0.450623 0.669354 0.422598
v 0.566622 0.679452 0.426195
v 0.445704 0.847918 0.420482
v 0.436254 0.937158 0.421814
v 0.430057 0.167794 0.414113
v 0.547737 0.691821 0.421612
v 0.573208 0.178143 0.412595
v 0.547421 0.183237 0.415446
v 0.42134 0.217838 0.414135
v 0.469896 0.607606 0.400979
v 0.521369 0.985194 0.416182
v 0.535156 0.378794 0.415878
v 0.57976 0.430086 0.386583
v 0.575209 0.494654 0.377306
v 0.478569 0.745837 0.407758
v 0.487484 0.96871 0.397237
v 0.447454 0.396062 0.40498
v 0.570275 0.520419 0.39144
v 0.555497 0.6213 0.422435
v 0.506104 0.645704 0.404107
v 0.495749 0.713574 0.404926
v 0.530674 0.785565 0.408787
v 0.459519 0.944236 0.393694
v 0.54607 0.942495 0.398341
v 0.483848 0.93553 0.384029
v 0.513285 0.968436 0.396552
v 0.559511 0.396774 0.406086
v 0.419505 0.487104 0.377128
v 0.510095 0.613794 0.39757
v 0.484353 0.915977 0.385231
v 0.485494 0.953048 0.387747
v 0.497248 0.940189 0.38106
v 0.535385 0.430602 0.364947
v 0.515409 0.880461 0.391666
v 0.524088 0.931179 0.386622
v 0.409179 0.466907 0.38482
v 0.482449 0.509823 0.368242
v 0.587035 0.466582 0.379282
v 0.466811 0.519036 0.373718
v 0.533563 0.493354 0.361211
v 0.44765 0.444088 0.359392
v 0.525708 0.474031 0.357068
v 0.500705 0.472873 0.361333
v 0.460618 0.461752 0.355341
v 0.501069 0.453495 0.362324
v 0.541147 0.461203 0.354819
v 0.526019 0.498571 0.364107
v 0.462901 0.381056 0.530519
v 0.55986 0.383489 0.530856
v 0.417439 0.39285 0.525917
v 0.57435 0.40067 0.533379
v 0.549989 0.277891 0.520622
v 0.605888 0.227412 0.512713
v 0.516842 0.380742 0.523151
v 0.433274 0.30861 0.529932
v 0.42244 0.286898 0.522811
v 0.422941 0.309985 0.529694
v 0.524691 0.332418 0.504173
v 0.453945 0.284017 0.518786
v 0.502723 0.372953 0.503858
v 0.477117 0.322313 0.500977
v 0.398276 0.382819 0.50829
v 0.616708 0.312955 0.490102
v 0.515269 0.269219 0.488304
v 0.485122 0.344004 0.491992
v 0.510593 0.347352 0.486463
v 0.375642 0.226347 0.468196
v 0.625092 0.211729 0.471334
v 0.382702 0.205254 0.503619
v 0.618028 0.349884 0.466096
v 0.513251 0.232444 0.449108
v 0.489267 0.328507 0.469317
v 0.387947 0.218158 0.43568
v 0.612549 0.378809 0.447499
v 0.498998 0.36858 0.44688
v 0.615186 0.266094 0.437875
v 0.538629 0.362432 0.418599
v 0.44903 0.213795 0.415635
v 0.408969 0.345801 0.421435
v 0.558387 0.25625 0.412775
v 0.583361 0.329088 0.416158
f 140 16 107
f 159 138 115
f 153 115 138
f 16 127 107
f 153 69 149
f 154 136 137
f 144 69 153
f 154 137 127
f 28 69 144
f 52 149 143
f 149 69 143
f 138 144 153
f 159 144 138
f 159 115 139
f 136 127 137
f 136 91 127
f 1 141 107
f 28 143 69
f 144 159 177
f 127 16 140
f 31 142 50
f 50 142 157
f 145 24 147
f 150 50 157
f 50 150 151
f 82 52 146
f 52 82 152
f 110 145 158
f 152 149 52
f 117 1 107
f 146 52 49
f 49 52 143
f 145 147 24
f 145 24 148
f 153 149 195
f 174 127 91
f 117 107 174
f 107 127 174
f 110 153 195
f 139 115 153
f 117 141 1
f 136 154 91
f 141 203 107
f 28 49 143
f 154 127 160
f 127 140 23
f 127 23 160
f 142 31 157
f 149 152 195
f 181 117 174
f 148 158 145
f 110 139 153
f 24 145 110
f 50 151 31
f 141 117 181
f 91 154 150
f 184 180 161
f 14 163 46
f 173 201 43
f 157 91 150
f 110 164 24
f 196 141 181
f 140 107 203
f 180 184 165
f 184 161 166
f 4 155 191
f 167 169 168
f 46 170 14
f 163 14 178
f 119 167 168
f 169 4 168
f 43 186 173
f 186 43 123
f 156 43 201
f 175 91 157
f 49 82 146
f 160 151 150
f 141 176 203
f 141 196 176
f 158 139 110
f 154 160 150
f 140 203 23
f 57 111 79
f 184 215 165
f 4 169 155
f 162 163 178
f 191 171 4
f 163 162 172
f 168 4 218
f 152 82 220
f 139 158 179
f 144 49 28
f 177 49 144
f 184 106 215
f 180 165 214
f 112 10 122
f 170 47 14
f 218 4 171
f 163 211 46
f 164 148 24
f 92 148 164
f 31 175 157
f 31 151 189
f 139 179 159
f 151 160 182
f 8 57 98
f 57 8 111
f 215 51 165
f 101 180 214
f 184 183 106
f 185 10 112
f 190 155 169
f 208 172 162
f 46 211 219
f 163 172 211
f 35 186 123
f 188 43 156
f 188 156 126
f 179 158 148
f 179 148 92
f 212 98 57
f 57 79 212
f 206 111 222
f 184 166 183
f 101 161 180
f 227 161 232
f 95 166 227
f 166 161 227
f 185 112 233
f 167 190 169
f 155 190 191
f 192 178 14
f 119 5 167
f 208 209 172
f 236 171 228
f 219 170 46
f 237 201 229
f 123 187 193
f 156 201 126
f 194 187 123
f 188 123 43
f 194 123 188
f 164 110 195
f 31 189 182
f 151 182 189
f 199 101 214
f 51 215 102
f 199 226 101
f 95 227 10
f 10 227 122
f 10 185 95
f 185 216 95
f 5 119 271
f 208 162 178
f 190 228 191
f 47 192 14
f 228 171 191
f 170 219 47
f 218 119 168
f 201 173 130
f 201 237 126
f 91 175 55
f 91 55 174
f 175 31 257
f 188 126 204
f 204 126 197
f 198 188 204
f 8 98 199
f 79 106 66
f 222 111 8
f 206 125 79
f 111 206 79
f 214 165 225
f 165 51 225
f 101 232 161
f 122 227 207
f 112 122 207
f 218 171 200
f 171 236 200
f 211 210 219
f 55 181 174
f 188 198 194
f 267 82 49
f 197 126 243
f 182 257 31
f 196 203 176
f 203 259 23
f 160 23 182
f 198 204 213
f 213 204 212
f 120 212 79
f 221 98 212
f 79 66 120
f 199 98 221
f 79 125 106
f 222 8 205
f 214 8 199
f 103 166 95
f 209 62 211
f 209 211 172
f 152 44 195
f 220 44 152
f 187 194 198
f 177 159 179
f 204 197 212
f 206 222 223
f 8 214 205
f 215 106 125
f 51 223 224
f 226 199 239
f 102 215 125
f 224 214 225
f 223 102 231
f 102 223 51
f 103 106 183
f 101 226 232
f 227 78 207
f 185 233 216
f 78 45 207
f 33 216 235
f 192 48 246
f 209 208 72
f 20 48 219
f 200 249 218
f 210 211 62
f 123 193 256
f 197 243 202
f 96 197 202
f 212 197 96
f 213 212 120
f 239 199 221
f 106 230 66
f 206 223 231
f 206 102 125
f 223 222 205
f 214 224 205
f 51 224 225
f 231 102 206
f 166 103 183
f 103 95 216
f 216 33 103
f 78 227 232
f 216 233 235
f 233 112 207
f 33 235 11
f 233 207 45
f 235 233 45
f 22 235 45
f 11 235 234
f 167 5 190
f 192 47 48
f 75 271 119
f 218 75 119
f 266 218 249
f 75 218 266
f 25 173 455
f 60 237 274
f 195 44 134
f 243 126 237
f 60 243 237
f 181 55 238
f 55 175 257
f 195 105 164
f 105 275 164
f 198 292 187
f 258 182 260
f 221 212 96
f 205 224 223
f 244 78 232
f 45 78 241
f 33 11 240
f 240 11 234
f 235 22 245
f 5 254 190
f 246 72 192
f 72 208 178
f 72 178 192
f 228 190 351
f 35 123 256
f 195 134 105
f 182 258 257
f 221 96 239
f 232 226 284
f 234 245 54
f 235 245 234
f 97 72 247
f 47 219 48
f 72 97 209
f 219 210 20
f 292 256 187
f 256 193 187
f 267 67 220
f 267 220 82
f 275 92 164
f 179 92 275
f 252 177 179
f 96 202 288
f 66 213 120
f 106 103 230
f 45 245 22
f 253 245 45
f 121 240 234
f 263 351 190
f 287 228 217
f 249 273 470
f 449 251 279
f 55 257 289
f 203 196 259
f 23 260 182
f 66 268 213
f 96 261 239
f 239 261 226
f 33 262 103
f 305 241 78
f 234 54 293
f 254 30 190
f 242 246 48
f 263 190 30
f 287 236 228
f 306 220 67
f 257 258 289
f 58 292 198
f 202 243 281
f 202 281 288
f 59 258 260
f 268 198 213
f 244 232 284
f 305 78 244
f 45 241 253
f 253 54 245
f 293 54 265
f 271 266 21
f 75 266 271
f 48 20 264
f 209 97 286
f 209 286 454
f 44 220 306
f 181 238 196
f 238 128 196
f 282 258 276
f 290 275 105
f 296 23 259
f 260 23 59
f 268 58 198
f 268 66 269
f 66 230 269
f 293 121 234
f 265 54 270
f 72 246 286
f 246 301 286
f 271 21 5
f 351 272 228
f 272 217 228
f 282 289 258
f 49 177 267
f 177 252 267
f 275 252 179
f 96 282 100
f 100 244 284
f 262 312 103
f 33 121 262
f 121 33 240
f 121 293 300
f 254 5 21
f 72 286 247
f 286 97 247
f 20 277 264
f 96 288 282
f 268 283 290
f 282 131 100
f 282 276 131
f 283 268 269
f 100 261 96
f 269 230 103
f 100 284 261
f 261 284 226
f 305 253 241
f 301 246 242
f 469 454 286
f 290 105 134
f 290 58 268
f 292 58 290
f 288 281 282
f 281 289 282
f 23 296 59
f 258 59 276
f 283 275 290
f 298 100 131
f 269 103 312
f 269 312 311
f 244 100 305
f 262 121 312
f 265 270 314
f 32 30 254
f 274 84 302
f 44 306 303
f 238 329 128
f 256 292 291
f 304 290 134
f 304 292 290
f 276 59 26
f 276 298 131
f 283 269 310
f 54 253 27
f 285 265 314
f 242 48 294
f 294 124 242
f 461 279 132
f 60 274 302
f 338 134 44
f 60 281 243
f 113 55 289
f 259 340 9
f 267 252 309
f 59 296 26
f 283 252 275
f 297 252 283
f 276 26 298
f 311 74 269
f 100 298 299
f 305 299 70
f 100 299 305
f 121 332 312
f 332 121 300
f 293 265 285
f 27 270 54
f 27 313 270
f 315 469 286
f 84 60 302
f 238 55 320
f 329 196 128
f 317 292 304
f 281 88 289
f 297 331 252
f 283 331 297
f 310 269 74
f 324 253 305
f 293 332 300
f 263 30 351
f 48 94 294
f 280 256 291
f 280 291 292
f 329 238 320
f 307 303 306
f 67 307 306
f 304 134 308
f 252 331 309
f 331 283 310
f 318 74 311
f 70 299 337
f 332 293 381
f 32 254 319
f 254 21 319
f 351 42 272
f 272 42 217
f 42 287 217
f 280 61 256
f 134 338 308
f 304 308 317
f 289 88 113
f 259 196 340
f 196 329 340
f 26 296 330
f 133 311 312
f 323 305 70
f 324 305 344
f 324 27 253
f 270 345 314
f 314 345 285
f 56 286 301
f 319 30 32
f 36 94 48
f 36 48 264
f 335 44 303
f 338 44 335
f 55 113 320
f 259 321 296
f 9 321 259
f 310 322 331
f 15 74 318
f 19 323 70
f 344 305 323
f 312 332 343
f 27 324 313
f 293 325 381
f 351 30 363
f 242 124 301
f 334 21 266
f 36 264 326
f 61 280 347
f 280 292 316
f 316 317 13
f 292 317 316
f 77 335 303
f 307 77 303
f 88 281 113
f 296 321 2
f 310 74 322
f 311 341 318
f 19 70 109
f 312 343 133
f 325 293 285
f 333 325 285
f 345 333 285
f 334 365 21
f 328 354 281
f 84 281 60
f 328 281 84
f 329 320 340
f 281 354 113
f 354 348 113
f 13 317 336
f 317 308 336
f 67 267 307
f 26 337 298
f 298 337 299
f 324 361 313
f 270 313 345
f 30 319 363
f 124 294 301
f 294 364 301
f 315 394 469
f 367 42 89
f 338 335 77
f 77 307 339
f 2 26 330
f 2 330 296
f 15 322 74
f 70 337 371
f 371 349 70
f 341 311 342
f 361 324 344
f 364 382 301
f 382 56 301
f 286 56 315
f 42 351 64
f 64 346 42
f 328 84 85
f 307 63 339
f 267 309 307
f 309 63 307
f 331 369 63
f 331 63 309
f 337 26 135
f 387 15 318
f 311 133 378
f 323 19 344
f 351 363 350
f 365 319 21
f 64 351 393
f 347 280 7
f 320 353 340
f 113 355 320
f 308 338 77
f 308 77 400
f 336 308 400
f 355 113 348
f 9 340 356
f 9 357 321
f 321 357 2
f 26 358 135
f 322 359 331
f 15 387 322
f 70 349 109
f 342 311 378
f 133 360 378
f 360 133 343
f 360 343 373
f 332 405 343
f 332 381 405
f 364 294 94
f 280 316 7
f 368 316 13
f 13 336 368
f 340 353 356
f 357 9 356
f 26 2 358
f 2 357 358
f 322 369 359
f 359 369 331
f 342 318 341
f 99 109 371
f 109 349 371
f 313 361 362
f 325 374 381
f 345 313 362
f 345 362 412
f 333 374 325
f 36 375 116
f 394 315 56
f 353 320 398
f 320 355 65
f 358 337 135
f 369 322 377
f 371 390 99
f 373 380 360
f 19 390 344
f 372 390 19
f 425 361 344
f 425 344 390
f 319 365 383
f 319 383 363
f 393 351 350
f 393 350 363
f 94 36 384
f 367 39 476
f 376 39 367
f 385 7 6
f 401 77 339
f 63 401 339
f 400 77 386
f 348 354 355
f 398 320 65
f 398 357 353
f 353 357 356
f 401 63 399
f 63 369 399
f 369 377 399
f 370 337 358
f 370 407 337
f 407 371 337
f 387 318 388
f 342 388 318
f 342 378 380
f 380 388 342
f 99 389 109
f 390 389 99
f 380 379 388
f 391 390 372
f 19 109 372
f 360 380 378
f 380 373 379
f 390 371 392
f 405 373 343
f 412 333 345
f 406 393 363
f 406 363 383
f 87 94 384
f 364 94 87
f 382 364 56
f 36 116 409
f 36 409 384
f 37 85 397
f 400 368 336
f 354 420 65
f 354 65 355
f 401 386 77
f 400 386 401
f 401 402 400
f 398 65 357
f 401 399 402
f 402 399 377
f 65 403 357
f 403 65 370
f 403 370 358
f 403 358 357
f 388 404 387
f 389 390 109
f 109 390 391
f 109 391 372
f 373 404 379
f 379 404 388
f 392 371 423
f 390 423 425
f 392 423 390
f 404 373 405
f 404 405 424
f 365 406 383
f 56 364 87
f 64 393 406
f 365 366 406
f 12 368 400
f 12 400 402
f 420 71 65
f 71 370 65
f 71 407 370
f 377 322 402
f 387 402 322
f 416 402 387
f 423 371 407
f 361 425 362
f 374 424 381
f 64 406 366
f 409 87 384
f 408 394 87
f 394 56 87
f 394 408 38
f 64 410 479
f 6 90 385
f 41 376 396
f 7 316 437
f 328 419 354
f 12 411 368
f 416 12 402
f 404 416 387
f 425 412 362
f 87 409 408
f 428 413 39
f 29 413 428
f 428 414 29
f 316 429 437
f 419 328 415
f 424 405 381
f 374 333 417
f 328 439 415
f 316 368 129
f 419 420 354
f 430 12 421
f 421 407 71
f 423 407 421
f 12 416 422
f 12 422 421
f 416 423 422
f 422 423 421
f 423 416 433
f 416 404 424
f 86 425 423
f 374 417 424
f 333 412 417
f 412 427 417
f 85 439 328
f 71 420 448
f 430 421 71
f 435 423 433
f 433 416 431
f 416 424 431
f 412 425 427
f 39 376 41
f 437 6 7
f 104 6 437
f 430 71 448
f 34 41 396
f 434 428 39
f 434 39 41
f 414 85 37
f 29 414 37
f 448 420 419
f 411 129 368
f 440 129 411
f 12 430 411
f 435 86 423
f 424 432 426
f 417 432 424
f 432 417 427
f 425 433 427
f 34 396 418
f 6 104 418
f 104 34 418
f 439 85 414
f 316 129 429
f 441 448 419
f 433 425 436
f 436 425 86
f 426 431 424
f 427 433 432
f 411 430 438
f 411 438 440
f 426 433 431
f 435 436 86
f 433 436 435
f 432 433 426
f 441 419 415
f 428 17 414
f 414 17 439
f 17 53 439
f 439 114 415
f 429 104 437
f 430 448 438
f 428 434 17
f 434 53 17
f 442 34 104
f 446 41 34
f 446 434 41
f 114 439 53
f 104 429 129
f 129 440 438
f 447 434 446
f 445 444 446
f 114 441 415
f 444 443 446
f 448 443 444
f 53 447 114
f 434 447 53
f 442 446 34
f 445 446 442
f 442 104 445
f 104 129 445
f 448 444 445
f 448 447 443
f 443 447 446
f 448 445 129
f 447 448 441
f 114 447 441
f 448 129 438
f 186 35 451
f 173 25 130
f 25 201 130
f 450 201 25
f 76 250 81
f 186 108 449
f 108 251 449
f 108 186 451
f 449 461 186
f 229 201 452
f 62 76 453
f 210 62 453
f 248 62 454
f 248 76 62
f 250 76 248
f 458 456 80
f 458 80 108
f 250 118 81
f 93 452 201
f 229 452 93
f 450 93 201
f 25 93 450
f 93 25 455
f 454 62 209
f 3 249 200
f 249 457 273
f 456 457 249
f 456 249 3
f 456 458 273
f 456 273 457
f 460 3 200
f 250 248 118
f 80 456 3
f 93 81 255
f 93 455 81
f 251 108 80
f 108 451 463
f 451 35 463
f 266 249 470
f 73 460 200
f 453 459 20
f 73 251 3
f 73 3 460
f 459 453 81
f 76 81 453
f 3 251 80
f 118 93 255
f 118 255 81
f 81 455 278
f 461 449 279
f 186 455 173
f 461 455 186
f 287 73 200
f 287 200 236
f 20 210 453
f 248 454 118
f 108 273 458
f 459 81 278
f 279 251 132
f 237 229 274
f 118 274 93
f 274 229 93
f 277 20 459
f 251 73 462
f 278 455 467
f 256 108 463
f 256 463 35
f 132 251 466
f 251 462 466
f 459 278 467
f 108 470 273
f 454 469 464
f 454 274 118
f 464 274 454
f 277 465 295
f 465 277 459
f 465 459 295
f 464 84 274
f 327 132 466
f 73 327 466
f 73 466 462
f 295 459 467
f 256 61 108
f 461 467 455
f 132 467 461
f 61 468 108
f 468 470 108
f 277 295 472
f 464 469 84
f 42 73 287
f 84 471 85
f 469 471 84
f 327 467 132
f 468 334 470
f 334 266 470
f 277 472 264
f 472 326 264
f 73 42 473
f 327 73 83
f 73 473 83
f 472 36 326
f 42 367 83
f 42 83 473
f 295 467 327
f 61 334 468
f 352 472 295
f 469 475 471
f 471 475 85
f 334 474 365
f 365 474 366
f 472 375 36
f 477 475 469
f 327 83 367
f 327 367 476
f 334 61 347
f 352 295 476
f 295 327 476
f 469 394 477
f 89 42 346
f 352 476 39
f 334 68 474
f 85 475 397
f 475 477 397
f 334 347 7
f 334 7 68
f 479 346 64
f 38 477 394
f 472 352 413
f 352 39 413
f 474 68 366
f 479 89 346
f 472 413 375
f 375 478 116
f 413 478 375
f 395 367 89
f 376 367 395
f 376 395 396
f 478 29 116
f 477 38 397
f 480 68 7
f 385 68 480
f 385 480 7
f 366 68 410
f 64 366 410
f 18 409 481
f 409 18 38
f 409 38 408
f 409 116 481
f 38 482 397
f 18 482 38
f 68 40 410
f 395 89 479
f 40 68 385
f 40 385 90
f 116 29 481
f 29 18 481
f 18 29 482
f 413 29 478
f 395 40 90
f 395 90 396
f 37 482 29
f 397 482 37
f 90 418 396
f 6 418 90
f 410 40 479
f 40 395 479
