v -6.63281 -4.37219 51.2546
v -51.1977 67.2976 -57.9591
v -57.2946 58.7849 -55.911
v -24.279 -9.01071 18.3676
v -54.4195 75.7259 -53.567
v -49.5018 75.1318 -54.4539
v -28.1006 -43.8359 10.2579
v -56.5211 69.4229 -55.0451
v -35.866 11.7126 15.3658
v 7.68295 34.9674 33.7498
v -59.7363 70.7589 -45.6145
v 2.89387 59.839 -48.16
v 17.4337 24.228 20.58
v -1.0367 60.6215 -48.4949
v -55.1111 69.6222 -47.9659
v -62.228 64.8035 -45.2895
v -24.4358 -45.0526 15.865
v -30.3322 17.0177 15.3417
v -56.8995 64.2314 -48.5089
v 10.3815 26.0004 30.9231
v -60.4643 58.1213 -44.6384
v -52.5653 75.2479 -43.7177
v 20.0652 38.6445 17.7006
v -4.23965 56.8916 -43.6521
v -55.8955 59.9703 -45.6257
v -19.1625 21.5019 24.3199
v -48.2996 84.557 -45.8246
v -16.354 30.1103 26.8833
v 24.0933 -21.523 2.04691
v 6.30973 56.4736 -42.2519
v -20.5533 57.9601 33.4964
v 52.0415 81.2274 -44.1561
v -22.8347 -11.7635 9.95699
v -58.3062 76.7254 -41.8765
v 13.2725 -8.99751 12.4691
v 3.67371 54.0425 -38.9007
v 58.008 76.1647 -44.2933
v 7.71426 61.1226 -39.4165
v -1.57712 66.6429 -35.7072
v 28.8372 -43.082 19.5663
v -60.8196 74.1234 -37.7579
v -39.9352 -37.6811 17.5477
v -56.7522 79.4473 -37.5151
v 18.525 -44.1997 29.8085
v 1.22126 64.1418 -40.7662
v -61.9048 67.6093 -34.6141
v 33.196 -45.9681 12.3935
v -4.19975 55.649 -37.3359
v 16.3799 -38.7454 28.7028
v 56.1488 74.3752 -36.8238
v 20.5057 -36.009 11.4324
v -10.5288 12.6989 27.6146
v 48.7254 87.3569 -40.1921
v -32.8147 -53.6456 4.35691
v 18.39 -16.204 19.1465
v -5.92155 57.0834 -35.282
v 58.6052 68.9302 -37.0055
v -50.6779 78.5646 -39.5343
v 1.7802 54.3661 -34.8455
v -42.9854 -19.204 9.13444
v 32.4695 -18.466 12.5664
v -54.6134 58.4731 -35.2268
v 57.2881 82.6834 -39.4894
v 22.9222 18.4911 10.9081
v -62.6497 60.6345 -37.7516
v -10.5319 -0.225875 13.172
v 11.5477 -27.0307 13.8235
v -2.10043 78.6551 34.1826
v 51.7698 88.8947 -39.1406
v -0.715401 54.9509 -40.7014
v 60.0919 76.3166 -36.1962
v 17.7509 32.3317 10.7306
v 3.18972 66.8994 -34.8615
v 51.7571 81.4494 -32.1517
v 8.50234 58.745 -33.4013
v -9.28663 31.6626 31.5881
v -49.8784 72.3789 -32.9973
v 54.7088 81.178 -34.6468
v -39.8844 56.4156 8.29709
v 38.8733 48.0114 6.76169
v -14.2904 38.2436 28.4752
v -24.2164 42.2601 22.1685
v -6.66542 71.8803 -34.4333
v -58.6482 72.0239 -29.3812
v -50.4156 56.1172 -34.1015
v 21.2305 74.9932 10.177
v 5.4174 57.336 -31.1207
v -4.89274 52.7163 -30.0722
v -7.38723 61.9731 -39.938
v -48.3529 69.4273 -32.7193
v 10.7089 56.1482 37.2739
v 48.7315 90.9566 -33.502
v 2.31727 50.8847 -30.7571
v 25.4379 -53.4782 24.9002
v -60.1964 56.5904 -28.6223
v 7.84052 70.6432 -33.3802
v 7.99939 87.7881 5.08319
v 58.1579 81.417 -31.406
v 5.58047 13.2674 27.6981
v 5.02182 74.0358 -29.7109
v -10.7834 86.2571 -30.7733
v -18.7389 81.3815 14.4403
v -1.97898 -4.43379 55.9543
v 34.0236 -23.0987 9.3225
v -44.14 70.2477 -30.9156
v -7.45496 73.9189 -30.2264
v 60.9849 77.7674 -34.825
v 51.8403 85.2637 -30.8543
v -33.939 -21.235 23.0385
v 32.9813 44.8844 8.47994
v -60.2336 61.2049 -31.821
v -10.6219 69.6674 35.5262
v -8.29603 61.7718 -30.416
v -62.8243 61.9534 -27.0852
v -5.75042 64.8251 -32.228
v -22.887 95.5852 -29.7805
v -40.9277 -42.3614 12.0642
v 55.1394 84.9417 -27.1916
v 11.6456 84.472 -29.6479
v -5.52689 -12.8886 57.68
v 48.9548 82.5922 -26.3251
v 31.3189 1.78666 18.6129
v -33.7864 -52.8753 23.8235
v 53.3433 66.4596 -27.813
v 1.09376 17.127 30.2842
v -23.8597 -22.7331 19.4026
v 49.1995 60.1237 -27.1505
v -29.973 62.3732 12.7807
v -29.7719 69.0611 7.77723
v -13.1005 -2.68431 17.0042
v -17.6025 97.2495 -24.7028
v -20.1724 34.2838 16.8197
v -53.2186 74.2098 -30.4948
v -2.29572 67.5618 38.2237
v -45.7969 52.106 -25.9726
v 8.04728 62.4099 -22.9884
v 57.1032 64.6992 -27.2484
v 11.0589 74.6873 -22.3022
v 63.9041 70.2954 -31.167
v -0.236596 78.1732 -27.1884
v -26.4895 53.8532 24.6201
v 8.48487 89.2383 -24.6671
v 53.8351 57.8762 -25.4679
v -35.7653 -41.0213 8.22096
v -10.202 78.7449 -26.1999
v 19.083 52.8386 31.3325
v -0.136997 58.0391 39.1364
v 8.78088 63.4531 -28.0274
v 23.4383 52.5963 24.6834
v 6.12812 81.2401 -22.8096
v 13.171 -47.5602 21.3128
v -14.5169 96.6058 -28.096
v -27.0613 -38.4965 22.632
v -50.6081 58.3757 -32.3775
v 47.7046 58.8255 -22.2406
v 61.7978 74.7925 -24.5264
v -19.1981 -9.98307 12.1739
v 12.8436 64.7122 -23.2281
v 17.4585 72.7296 29.1417
v 10.4146 78.3791 -25.7916
v 21.6289 96.3582 -27.9207
v -43.1753 56.5099 -22.8481
v 18.7057 25.2454 12.6375
v -5.66888 81.1087 -24.7643
v -15.6195 91.1411 -26.4034
v -15.1898 34.5347 29.8888
v -7.527 7.27055 21.9483
v -12.1484 57.3797 37.5896
v 10.6768 1.45129 20.727
v -13.0998 65.2727 -26.433
v -56.2161 52.5629 -26.48
v 59.9221 60.3314 -22.1776
v 55.065 82.9234 -20.237
v -59.6275 72.098 -22.1873
v -24.248 74.4997 8.56723
v -9.56192 80.9492 -22.8989
v 17.7638 96.9026 -23.8768
v -39.7208 55.8154 -22.3547
v -45.9464 73.1035 -24.6941
v 21.0001 76.018 19.7757
v 15.9507 91.536 -24.8311
v -17.5383 84.0559 -22.1732
v -40.6926 66.728 -23.2131
v 24.6377 67.3896 20.8445
v 48.3503 73.8297 -21.7013
v 9.16973 80.7129 -22.9069
v -46.9061 49.3576 -19.7566
v 10.1098 67.6612 36.3203
v -51.0798 72.5078 -18.898
v 49.6915 83.9776 -22.5545
v 24.9501 -25.3709 27.4841
v 43.5506 54.3462 -20.9902
v -7.37519 59.9428 -19.9655
v -12.076 78.0939 -21.5762
v -39.6874 -18.874 19.3665
v 22.8069 -38.4269 30.5868
v -0.508564 48.6338 35.4321
v 26.7333 -33.7709 9.17267
v 19.8434 87.643 -20.5526
v -23.6732 -51.7348 25.8898
v 54.6567 52.4151 -16.0157
v -39.912 -33.85 10.3688
v -37.7622 57.0742 -16.4224
v 20.6177 -28.7838 6.82476
v -25.7649 68.2541 22.8589
v -24.8517 -32.588 5.94217
v -9.63303 63.3765 -23.9935
v -40.3954 51.9634 -16.0754
v -0.471617 53.9885 -19.219
v 16.7573 -20.8678 23.5574
v -40.103 67.8043 -18.1377
v 18.683 -44.3279 13.5442
v -5.12321 85.7546 -18.2122
v 30.4384 -28.1465 25.0458
v 27.9208 -15.7303 18.949
v 61.2022 69.5771 -20.9696
v 10.4572 79.6542 -14.0943
v 22.741 40.2753 19.8607
v 21.1276 -10.0916 20.3401
v 7.19561 83.835 -14.9748
v 5.3797 57.8826 -19.0473
v -32.1056 -11.5484 16.19
v 41.1662 62.6541 -13.5974
v -26.1537 -13.5061 14.2853
v 44.0811 74.4475 -18.2915
v 49.6117 76.4321 -18.1095
v 14.6058 -26.9823 8.19268
v -15.1993 72.6295 -18.1996
v -1.73949 -7.24868 50.7551
v 34.8093 1.80011 7.50431
v 10.5883 67.0049 -15.0771
v -15.3418 67.1083 -17.524
v 33.2282 -30.2384 19.0783
v -57.4533 66.6286 -11.8966
v -64.1629 63.7756 -22.0021
v 32.7745 55.3095 14.7706
v -36.0165 -34.533 22.5817
v -8.01847 83.8143 -13.983
v -1.46633 7.2657 16.7518
v -38.0963 63.2897 -15.0679
v -45.6799 69.6963 -13.3472
v 12.7249 75.9394 -10.8626
v 49.7937 49.272 -12.6741
v -52.4529 50.7897 -15.6787
v 13.3847 64.4761 -10.0678
v -3.64099 2.64539 39.3456
v -6.74465 56.91 -16.1122
v 17.859 43.0424 -11.253
v 12.9137 51.6173 -13.7094
v -60.8136 56.2846 -16.1673
v -8.99307 36.2414 -12.87
v 16.5813 39.649 28.2203
v -12.5156 50.2844 -15.5874
v -0.341273 26.4128 32.1651
v -7.77937 21.6343 31.3706
v -21.3746 63.6504 -14.2104
v -18.0399 70.2359 -11.9633
v 20.815 12.9338 21.7746
v 1.96571 36.7348 -10.8231
v 41.5384 -52.6657 4.7361
v 7.33039 73.4945 35.8818
v 2.90239 54.1128 -14.4283
v -17.7755 43.8695 -14.6765
v -6.98284 52.5286 -12.048
v 63.4538 63.0222 -12.6331
v 14.8047 -42.8098 23.7421
v -16.4291 -0.863118 22.4228
v -46.0111 47.9677 -7.99415
v -0.497088 46.8774 -12.138
v -30.7082 13.1409 22.083
v -14.2393 65.1134 -12.8397
v -13.2832 77.7113 -12.4706
v -48.6759 -47.7088 12.1142
v -18.5545 56.0657 -11.6544
v 12.7548 57.1205 -11.3446
v 14.6165 69.2163 -15.0737
v -16.9973 41.6067 32.5039
v -46.6619 50.5912 -12.4877
v -25.5946 52.4378 -8.72739
v 39.7994 68.4602 -13.6497
v 29.9093 -9.82534 15.3629
v 47.6847 73.7268 -10.2678
v -0.298937 86.4842 -9.36063
v 0.5479 0.0647413 28.9523
v -0.598672 40.4075 -11.237
v 0.380011 5.23892 5.92235
v -4.40045 5.65138 9.45344
v -39.2062 47.4073 -8.25724
v 21.1472 60.7336 -10.6471
v -44.6506 66.3276 -8.72582
v 19.3692 -52.3871 32.048
v -16.8141 72.5268 30.5033
v 13.5489 -49.5868 31.2805
v -5.98592 -0.362823 33.4242
v 14.6446 81.2855 22.5569
v -26.9686 43.7164 10.5523
v 20.3696 57.2561 -8.18404
v 44.6331 49.3347 -15.5837
v 37.8903 59.2983 -9.78674
v 37.6169 62.2613 -13.5905
v -26.5687 43.0151 15.4836
v -1.99628 49.5791 38.7583
v 6.94317 38.3379 31.626
v 24.7251 45.9395 13.1501
v -6.99014 28.9413 -7.81831
v 40.3481 51.5684 -12.5364
v 28.3099 -19.0901 24.1199
v -35.0142 50.9243 9.96768
v -27.796 60.9805 -8.07045
v -6.63491 88.8245 16.6525
v -9.84179 32.5075 -5.89643
v 26.3155 -4.0831 21.6026
v 30.639 -33.4666 13.945
v -25.6313 47.9683 -5.33746
v -52.0989 58.0944 -9.36118
v 54.4538 76.1069 -15.3472
v 1.39658 89.7764 -7.25498
v -49.504 -53.6315 10.8511
v -9.29531 87.8608 -7.72324
v 30.7693 11.9285 12.6479
v -21.8742 25.3281 17.4095
v 39.3227 47.3148 -8.85097
v -8.89882 77.777 32.9251
v 49.9332 51.7538 -5.94506
v 29.0845 55.3485 -6.43508
v 49.7058 68.4891 -5.15261
v -12.81 79.5068 -7.60392
v -42.9365 -52.2826 -0.333228
v 25.0466 62.2165 -4.61488
v 6.19377 85.3998 24.3401
v -34.0508 66.2587 -5.16922
v 38.8411 61.8108 -4.87729
v -26.6344 60.9132 26.1891
v -43.6323 -53.0252 -10.6361
v -28.3756 -44.2147 23.9029
v 10.1063 31.216 -4.79269
v 59.2211 56.213 -7.48734
v 58.3967 69.2246 -4.5539
v -7.45547 88.4405 -4.27563
v -6.32448 7.94991 26.5213
v 0.525048 21.8979 -6.23858
v -22.6862 -39.8686 14.9269
v -42.0492 -26.1797 15.9347
v 11.8729 77.6281 -6.65752
v -16.2994 80.2266 -5.1253
v 11.7692 -52.9819 27.8693
v -6.8616 19.9357 -3.7445
v -18.8984 44.4933 30.5962
v 22.2065 47.1707 -5.53864
v -23.0225 71.0931 -3.89344
v 14.3122 80.7376 -5.09223
v -39.6233 -0.78103 13.8442
v -34.4958 3.14313 20.8797
v -52.4849 -53.6907 -7.18578
v 5.20615 27.654 -6.29455
v 26.7606 47.219 -4.15848
v 17.7677 69.3282 -9.49376
v 26.4947 -45.1005 25.5278
v 29.0849 -51.8933 -6.73365
v -50.2666 -48.7528 -3.0474
v -41.6789 64.4377 -0.312915
v 24.7313 70.3621 16.5196
v 0.396882 11.6839 -3.24843
v -3.8133 -6.63246 43.1562
v 1.74755 89.3666 16.4713
v -49.2575 54.8752 -2.29783
v -21.9309 74.6222 23.317
v -6.23695 39.289 33.6399
v -14.7245 82.9254 21.3949
v -42.0956 -9.18478 -2.55412
v -23.2925 -53.5945 19.0147
v -22.8454 74.2242 -3.70296
v 26.3397 -42.7584 14.5931
v -37.3571 -44.0885 20.5876
v -13.5097 31.2138 -1.47912
v -20.6417 37.3293 -2.91323
v 52.6487 62.7092 -0.501771
v -28.6148 -9.78083 -0.778584
v 28.8032 -4.88414 -2.64577
v -29.7154 -3.09549 -2.73415
v 47.4576 60.2857 -1.28181
v 3.02484 88.5469 -3.1264
v 20.5389 -53.4256 5.06901
v 7.40166 1.21774 14.6291
v -34.6792 0.821615 -2.26378
v 18.5725 35.7897 3.34256
v 20.9235 68.8906 -0.316488
v 8.07608 42.4824 34.9854
v 7.44959 87.3134 -6.31711
v 34.2078 -53.5431 16.5832
v -36.8176 -15.6791 -0.765443
v 16.0923 15.3113 0.888569
v 6.7003 24.7221 -2.29517
v -25.7177 73.5747 14.3852
v 43.4388 64.4196 -3.00447
v -35.5649 -20.0147 -0.534486
v 32.2497 -17.1304 -1.31568
v 26.5399 -12.7375 -0.928206
v 4.74773 14.8035 -1.23791
v 32.5292 65.0017 8.36942
v -8.19471 11.0569 0.326889
v 42.8961 46.8137 0.806692
v -46.8662 62.7865 -2.19472
v -22.9539 -16.4518 11.5462
v -48.5259 -50.5938 4.19929
v -29.348 -16.2925 0.654049
v -39.0377 -3.11847 0.04721
v 34.965 -5.63917 11.0412
v 14.4528 -7.44557 18.4423
v -20.2754 -27.874 10.3486
v 44.2283 58.4018 4.49838
v -45.1305 52.4471 -0.0313513
v -26.2371 -2.89005 23.1163
v 16.4441 0.268007 24.249
v 15.8507 -17.583 12.3157
v -22.8683 8.75339 -0.96133
v 23.9187 5.67085 -1.75907
v -29.8888 59.0045 17.5685
v 8.04417 77.471 32.5724
v 22.4273 7.40954 25.4612
v -46.58 -53.0158 7.03624
v -33.6537 -50.7333 0.134315
v -39.4834 -47.5255 0.614888
v -2.78097 5.27148 0.455019
v 17.5142 80.7959 15.6723
v 10.481 86.2705 15.2987
v 35.2194 44.5085 -1.27429
v 22.0492 71.9997 -0.502839
v -26.4458 71.9177 -0.119604
v 35.4819 -53.166 -3.68415
v -25.2845 16.6096 5.9058
v 35.3608 -48.2996 15.2981
v 11.3561 6.07516 0.728918
v -6.48589 85.0621 25.399
v -27.724 67.0267 -1.80148
v 33.3501 -21.107 19.3551
v 19.6496 -12.2046 0.754637
v -18.7571 -1.89667 1.29635
v -13.7698 4.98288 2.21409
v -15.3614 18.6651 0.444496
v -29.8911 45.521 1.14255
v 17.1074 76.106 1.56328
v 37.6577 -52.7152 -2.66681
v -35.3073 -46.2154 0.960297
v -38.3862 -25.0086 2.48567
v 29.2263 7.15447 2.10241
v -38.233 47.0098 4.01321
v 25.6723 69.3132 3.22228
v -28.5553 -21.4532 0.819906
v 17.7405 -4.13241 -1.44049
v 25.7143 59.7853 18.9384
v 44.9666 50.8368 5.17749
v 33.5713 -50.8621 7.8678
v 13.4733 37.3763 26.2856
v 0.568491 8.08263 33.9701
v 34.7302 -5.1015 3.29268
v 8.03578 3.72003 4.31152
v -36.9465 5.8128 2.33765
v 23.4553 16.6168 6.10461
v -20.488 24.5111 7.1165
v 39.3504 62.6152 3.9206
v -13.6415 83.8108 3.0364
v -1.97914 90.2428 4.67916
v 17.4079 -40.5949 15.3682
v -31.0252 11.7324 3.07437
v -40.8954 -29.7013 7.5653
v 28.4791 11.1605 19.3887
v -56.0461 -50.9925 1.65232
v -31.0567 -31.5109 3.282
v 13.5688 -29.1675 22.924
v 28.0424 -37.3795 27.1433
v -36.8275 64.6769 4.89197
v 13.7025 81.4765 3.6349
v -40.7485 0.328338 6.46894
v 4.03447 6.83908 24.4371
v 26.4567 68.2273 9.75085
v -20.687 75.8686 4.85179
v 14.6519 6.80822 24.9017
v 27.7532 -53.3228 6.72811
v -23.1932 9.49075 26.217
v -2.15134 -5.68206 36.9609
v 33.6446 -9.99455 2.60283
v 13.4452 20.3971 25.2417
v 2.62965 -3.56486 38.2142
v 17.1776 30.7569 21.5542
v -41.2483 -44.8397 3.91104
v -36.3496 -32.3886 5.4726
v 32.0158 -20.754 4.46179
v -23.0385 -22.6369 2.91477
v -42.5153 -15.9096 4.03715
v 22.6 67.0303 24.6482
v -19.5048 32.867 6.81007
v -11.1855 88.3579 11.1201
v 27.7885 -49.8415 3.40983
v 20.2828 -47.8305 4.15723
v 23.9474 43.7308 3.58597
v 23.4488 -43.9715 8.53808
v -38.2578 -10.8283 12.7006
v 26.9766 -27.5782 4.48394
v 14.2119 25.4793 4.77039
v 30.7666 -46.3296 4.69462
v -47.4805 -45.9878 7.95428
f 157 4 224
f 444 144 7
f 144 444 486
f 369 434 102
f 406 404 489
f 442 473 86
f 201 265 337
f 128 129 435
f 386 72 500
f 230 446 320
f 286 287 424
f 488 482 61
f 60 445 466
f 308 447 441
f 405 468 502
f 54 422 7
f 443 453 479
f 320 446 459
f 281 482 408
f 462 102 493
f 29 204 227
f 497 501 494
f 466 202 343
f 26 18 480
f 478 169 420
f 218 252 23
f 457 437 35
f 437 29 35
f 406 33 404
f 488 499 29
f 497 373 47
f 411 80 452
f 472 361 79
f 460 492 375
f 458 9 465
f 401 287 439
f 474 407 490
f 294 284 481
f 493 463 462
f 421 328 54
f 448 476 400
f 452 80 402
f 459 64 320
f 330 295 425
f 463 339 462
f 487 466 445
f 451 184 491
f 144 469 206
f 153 126 109
f 492 460 132
f 486 405 502
f 443 501 453
f 188 159 261
f 472 79 128
f 33 406 378
f 204 29 499
f 469 489 206
f 230 320 122
f 405 318 468
f 465 431 416
f 442 86 428
f 331 128 435
f 145 140 106
f 144 206 7
f 79 412 447
f 445 60 490
f 157 66 130
f 450 437 457
f 407 370 490
f 406 489 449
f 449 487 445
f 405 486 360
f 104 499 488
f 479 494 430
f 446 456 379
f 429 129 175
f 331 472 128
f 411 452 402
f 427 80 110
f 484 481 284
f 254 368 76
f 475 484 284
f 457 286 433
f 477 429 175
f 450 457 433
f 469 487 449
f 486 444 423
f 418 141 333
f 314 208 279
f 389 97 473
f 29 415 35
f 480 18 270
f 411 395 461
f 33 378 438
f 431 18 460
f 408 456 230
f 330 310 434
f 42 202 144
f 424 363 286
f 230 456 446
f 394 175 129
f 397 488 29
f 359 495 494
f 489 469 449
f 372 429 477
f 387 448 400
f 321 28 132
f 479 383 359
f 458 407 474
f 435 429 350
f 488 397 482
f 61 482 281
f 104 61 313
f 129 429 435
f 444 7 422
f 458 474 9
f 459 392 500
f 500 392 393
f 416 431 460
f 494 495 497
f 80 427 402
f 396 490 391
f 430 494 501
f 286 239 287
f 463 97 382
f 386 496 72
f 388 303 252
f 97 463 426
f 146 188 91
f 363 399 286
f 340 294 246
f 391 490 370
f 486 423 328
f 359 494 479
f 476 362 400
f 313 61 233
f 153 374 335
f 153 237 374
f 427 110 496
f 314 376 296
f 296 376 492
f 386 500 355
f 144 487 469
f 460 440 416
f 440 401 416
f 465 18 431
f 146 388 252
f 54 371 123
f 292 112 323
f 406 449 396
f 153 109 237
f 405 354 421
f 328 421 354
f 448 387 428
f 461 329 400
f 395 332 461
f 414 409 219
f 125 255 52
f 392 433 399
f 399 433 286
f 446 417 459
f 416 401 439
f 368 302 277
f 456 482 379
f 437 398 29
f 80 236 110
f 397 29 398
f 312 414 219
f 86 473 425
f 443 430 501
f 443 479 430
f 372 477 462
f 351 389 473
f 331 361 472
f 386 248 496
f 386 355 336
f 392 459 417
f 392 417 433
f 361 403 79
f 321 26 28
f 308 128 79
f 460 18 321
f 339 463 382
f 501 497 47
f 345 372 462
f 427 496 356
f 407 458 385
f 385 465 416
f 416 439 438
f 378 380 438
f 368 303 197
f 401 424 287
f 391 406 396
f 422 423 444
f 487 144 202
f 486 328 354
f 354 405 360
f 382 97 389
f 351 473 442
f 395 411 381
f 466 487 202
f 394 129 128
f 324 411 402
f 326 395 381
f 482 398 379
f 499 198 204
f 420 312 122
f 490 498 474
f 440 347 401
f 371 200 123
f 499 104 313
f 428 86 448
f 371 54 17
f 198 51 204
f 304 149 218
f 55 210 307
f 329 387 400
f 324 381 411
f 214 436 307
f 51 464 227
f 373 497 212
f 261 419 68
f 416 438 380
f 79 447 308
f 339 345 462
f 428 351 442
f 454 485 23
f 308 296 128
f 355 500 393
f 375 347 440
f 454 252 303
f 393 392 399
f 458 465 385
f 117 486 502
f 403 412 79
f 385 416 380
f 26 321 18
f 450 433 417
f 424 401 363
f 450 398 437
f 7 206 342
f 490 396 445
f 403 366 412
f 13 485 20
f 381 324 377
f 349 356 496
f 322 402 427
f 460 321 132
f 236 304 110
f 379 450 417
f 407 378 370
f 450 379 398
f 328 423 334
f 184 180 491
f 381 377 326
f 366 268 412
f 102 462 477
f 456 408 482
f 375 311 305
f 370 378 391
f 383 495 359
f 64 459 500
f 99 125 455
f 123 335 374
f 10 454 303
f 441 447 288
f 42 144 117
f 328 334 54
f 198 373 464
f 51 198 464
f 291 293 346
f 413 4 267
f 460 375 440
f 377 337 338
f 188 146 159
f 67 227 464
f 333 205 418
f 317 339 382
f 344 387 357
f 329 357 387
f 412 268 288
f 324 402 322
f 482 397 398
f 401 347 363
f 354 360 486
f 166 132 28
f 407 385 378
f 351 428 344
f 159 180 295
f 17 54 7
f 408 230 122
f 329 332 299
f 418 82 141
f 388 197 303
f 320 467 122
f 305 347 375
f 393 399 341
f 399 363 347
f 464 373 212
f 361 290 403
f 403 290 366
f 394 102 175
f 273 502 468
f 347 341 399
f 236 400 362
f 290 361 331
f 476 86 362
f 323 434 369
f 455 125 52
f 393 341 355
f 453 260 479
f 356 349 325
f 163 13 64
f 342 206 410
f 498 490 60
f 317 389 283
f 327 372 345
f 350 429 372
f 453 501 47
f 80 411 236
f 471 40 233
f 447 412 288
f 266 49 470
f 432 47 373
f 423 422 334
f 376 375 492
f 317 319 339
f 313 373 198
f 338 326 377
f 299 325 329
f 337 377 324
f 305 341 347
f 169 409 414
f 242 344 357
f 327 350 372
f 366 290 315
f 325 349 329
f 389 317 382
f 329 349 297
f 215 61 281
f 445 396 449
f 375 376 311
f 314 279 376
f 386 336 248
f 420 414 312
f 259 336 355
f 483 478 258
f 355 341 305
f 302 368 197
f 319 345 339
f 389 351 283
f 283 351 344
f 315 268 366
f 492 132 296
f 441 288 314
f 23 252 454
f 357 329 289
f 240 331 435
f 265 338 337
f 378 406 391
f 358 40 196
f 168 348 277
f 451 491 149
f 427 356 322
f 410 206 489
f 439 66 438
f 258 478 420
f 345 319 327
f 31 348 168
f 350 327 257
f 257 327 272
f 313 233 40
f 415 29 227
f 390 346 479
f 86 425 362
f 376 279 263
f 319 317 283
f 68 434 323
f 395 282 280
f 471 233 214
f 210 191 307
f 376 251 311
f 355 305 259
f 54 123 421
f 319 283 327
f 395 326 282
f 435 350 256
f 435 256 309
f 299 332 300
f 435 309 240
f 325 299 306
f 159 491 180
f 500 72 163
f 270 353 480
f 66 157 33
f 310 365 493
f 169 414 420
f 283 344 217
f 344 242 217
f 166 81 132
f 323 134 68
f 267 480 413
f 480 353 413
f 356 325 306
f 146 218 149
f 368 166 76
f 254 76 255
f 337 324 201
f 201 324 243
f 322 356 306
f 298 243 324
f 272 327 238
f 326 316 282
f 20 254 255
f 500 163 64
f 309 279 203
f 324 322 298
f 239 475 284
f 285 259 305
f 289 245 276
f 31 168 292
f 283 238 327
f 112 292 168
f 475 455 484
f 297 245 289
f 323 112 134
f 249 275 297
f 216 316 338
f 338 265 216
f 495 383 212
f 276 357 289
f 218 496 304
f 275 245 297
f 279 309 256
f 418 296 301
f 493 102 310
f 297 289 329
f 376 263 251
f 117 374 42
f 208 314 288
f 123 318 421
f 9 270 18
f 217 220 283
f 479 260 390
f 74 124 185
f 234 315 290
f 248 249 297
f 279 256 274
f 336 259 248
f 409 384 35
f 253 264 269
f 195 498 60
f 35 55 219
f 168 277 302
f 305 311 285
f 97 425 473
f 261 68 134
f 203 279 208
f 238 283 213
f 191 214 307
f 54 334 422
f 225 280 282
f 315 234 250
f 274 256 271
f 384 169 286
f 268 315 278
f 263 279 274
f 205 31 292
f 224 33 157
f 287 66 439
f 478 475 169
f 256 350 257
f 52 267 167
f 276 245 231
f 266 470 67
f 295 330 159
f 281 408 312
f 285 311 251
f 340 239 284
f 219 55 215
f 62 25 15
f 479 346 383
f 214 233 436
f 166 368 81
f 278 315 244
f 269 275 249
f 288 268 208
f 241 234 290
f 247 274 271
f 335 123 200
f 245 275 262
f 196 40 471
f 264 253 274
f 273 318 123
f 209 221 245
f 212 383 151
f 233 61 436
f 213 283 220
f 10 303 254
f 357 276 242
f 132 81 82
f 343 195 60
f 335 17 153
f 282 316 226
f 247 264 274
f 306 298 322
f 219 409 35
f 264 262 269
f 269 285 253
f 278 208 268
f 390 358 94
f 192 306 300
f 349 248 297
f 235 234 174
f 66 33 438
f 234 235 250
f 232 256 257
f 203 240 309
f 264 209 262
f 197 388 302
f 224 126 404
f 249 248 259
f 249 259 269
f 52 255 26
f 223 300 280
f 240 211 241
f 240 290 331
f 256 232 271
f 253 263 274
f 185 155 223
f 244 187 278
f 253 251 263
f 285 251 253
f 234 241 189
f 300 306 299
f 290 240 241
f 368 254 303
f 329 461 332
f 486 117 144
f 228 257 272
f 151 464 212
f 409 169 384
f 485 454 10
f 498 195 222
f 228 232 257
f 244 315 250
f 179 189 241
f 223 280 225
f 346 390 94
f 252 218 146
f 271 193 247
f 405 421 318
f 239 340 167
f 209 245 262
f 151 293 266
f 194 272 238
f 40 373 313
f 202 42 343
f 480 267 52
f 316 326 338
f 201 243 298
f 194 228 272
f 151 346 293
f 221 231 245
f 312 219 281
f 4 222 224
f 210 470 49
f 383 346 151
f 199 220 217
f 173 226 316
f 138 242 276
f 134 188 261
f 231 136 158
f 192 223 155
f 496 23 72
f 138 217 242
f 478 99 475
f 271 232 207
f 390 260 432
f 207 193 271
f 277 81 368
f 300 223 192
f 225 185 223
f 194 238 182
f 192 298 306
f 220 199 177
f 220 150 213
f 99 478 483
f 26 480 52
f 47 260 453
f 17 335 200
f 244 250 171
f 278 187 208
f 128 296 418
f 156 173 316
f 394 128 205
f 248 349 496
f 418 205 128
f 201 298 143
f 210 415 67
f 173 190 226
f 138 199 217
f 174 234 189
f 241 211 179
f 276 231 158
f 166 28 76
f 201 172 265
f 109 195 237
f 168 134 112
f 51 227 204
f 225 226 185
f 158 138 276
f 221 136 231
f 178 240 203
f 156 316 216
f 364 294 481
f 201 143 172
f 95 171 250
f 178 208 187
f 104 488 61
f 455 246 103
f 199 138 186
f 147 302 388
f 178 183 240
f 33 224 404
f 208 178 203
f 9 474 352
f 280 300 332
f 238 213 131
f 192 155 127
f 418 301 82
f 205 292 367
f 142 150 220
f 187 171 135
f 72 485 163
f 183 178 162
f 177 142 220
f 183 211 240
f 182 176 194
f 466 343 60
f 362 451 236
f 170 232 228
f 49 266 44
f 192 127 298
f 187 135 178
f 394 367 102
f 238 131 182
f 167 340 52
f 213 150 164
f 236 411 461
f 160 186 138
f 20 485 10
f 179 174 189
f 211 183 179
f 216 265 172
f 177 199 161
f 13 163 485
f 176 182 165
f 483 258 13
f 388 146 91
f 226 121 185
f 342 410 126
f 228 145 106
f 153 17 342
f 226 225 282
f 353 270 9
f 228 194 145
f 95 250 114
f 93 209 193
f 114 250 235
f 147 168 302
f 176 145 194
f 207 232 170
f 156 98 118
f 193 207 93
f 384 457 35
f 426 463 365
f 199 181 161
f 404 126 410
f 164 101 213
f 186 181 199
f 106 170 228
f 348 141 82
f 158 136 148
f 385 380 378
f 367 369 102
f 287 239 130
f 209 247 193
f 295 180 425
f 119 160 150
f 216 139 156
f 179 183 105
f 185 124 155
f 369 367 292
f 188 147 91
f 161 119 142
f 497 495 212
f 116 165 182
f 448 86 476
f 164 150 140
f 100 160 138
f 275 269 262
f 432 260 47
f 483 13 20
f 182 131 116
f 365 330 425
f 294 340 284
f 190 173 92
f 425 97 426
f 15 2 8
f 101 152 213
f 17 7 342
f 164 140 145
f 451 304 236
f 481 484 364
f 191 210 49
f 148 138 158
f 178 135 162
f 154 162 135
f 91 147 388
f 88 93 207
f 26 255 28
f 273 468 318
f 101 176 165
f 101 145 176
f 164 145 101
f 369 292 323
f 100 150 160
f 121 74 185
f 139 216 137
f 84 114 174
f 467 420 122
f 90 183 162
f 170 113 207
f 169 239 286
f 187 244 171
f 92 121 190
f 118 173 156
f 179 133 174
f 127 155 124
f 148 136 87
f 224 222 126
f 415 227 67
f 161 142 177
f 273 374 117
f 226 190 121
f 118 92 173
f 209 136 221
f 134 168 147
f 138 96 100
f 420 467 258
f 52 340 455
f 415 55 35
f 188 134 147
f 137 143 127
f 119 186 160
f 127 143 298
f 195 109 222
f 106 115 170
f 152 131 213
f 124 137 127
f 296 132 82
f 358 291 94
f 181 119 161
f 465 9 18
f 332 395 280
f 119 150 142
f 186 119 181
f 133 179 77
f 93 87 136
f 148 96 138
f 82 301 296
f 122 312 408
f 246 294 1
f 426 365 425
f 266 67 464
f 50 124 74
f 105 183 90
f 367 394 205
f 170 115 113
f 20 10 254
f 441 314 296
f 191 471 214
f 71 156 139
f 307 436 215
f 261 159 419
f 43 133 77
f 207 113 88
f 135 85 154
f 348 82 277
f 108 92 118
f 413 353 352
f 92 108 121
f 107 98 156
f 71 107 156
f 171 85 135
f 84 174 133
f 46 65 111
f 210 67 470
f 75 148 87
f 55 415 210
f 131 152 116
f 108 74 121
f 106 140 100
f 496 218 23
f 140 150 100
f 352 498 413
f 20 255 125
f 209 93 136
f 455 103 484
f 106 100 73
f 106 83 115
f 126 222 109
f 95 114 111
f 116 101 165
f 157 130 4
f 313 198 499
f 152 101 116
f 96 73 100
f 432 373 40
f 46 111 84
f 98 63 78
f 362 184 451
f 118 69 108
f 124 50 57
f 191 49 196
f 286 457 384
f 148 73 96
f 69 118 98
f 374 273 123
f 364 1 294
f 39 106 73
f 111 114 84
f 229 364 484
f 90 162 154
f 463 493 365
f 343 237 195
f 125 99 483
f 133 43 84
f 50 74 78
f 106 39 83
f 379 417 446
f 171 95 62
f 57 137 124
f 255 76 28
f 229 1 364
f 89 113 115
f 148 38 73
f 56 88 113
f 205 333 31
f 48 93 88
f 239 169 475
f 139 137 57
f 39 115 83
f 93 70 59
f 43 41 84
f 307 215 55
f 159 330 419
f 87 93 59
f 246 455 340
f 410 489 404
f 387 344 428
f 209 264 247
f 38 148 75
f 70 93 48
f 308 441 296
f 110 304 496
f 62 95 111
f 62 111 65
f 59 75 87
f 215 436 61
f 42 237 343
f 141 348 31
f 434 419 330
f 62 154 85
f 196 471 191
f 63 98 107
f 216 172 137
f 484 103 229
f 291 358 44
f 167 267 130
f 89 56 113
f 117 502 273
f 358 196 44
f 53 74 108
f 69 98 78
f 149 304 451
f 74 53 78
f 66 287 130
f 99 455 475
f 41 46 84
f 45 73 38
f 62 15 154
f 77 90 22
f 266 293 44
f 38 75 30
f 258 467 64
f 30 75 59
f 53 69 78
f 50 32 71
f 90 77 105
f 22 90 154
f 22 154 15
f 222 413 498
f 59 36 30
f 48 24 70
f 259 285 269
f 139 57 37
f 62 65 21
f 64 13 258
f 32 50 78
f 81 277 82
f 22 58 77
f 37 57 50
f 103 246 1
f 73 45 39
f 36 59 70
f 43 58 27
f 108 69 53
f 32 107 71
f 37 71 139
f 149 491 146
f 120 1 229
f 25 62 21
f 425 180 184
f 41 16 46
f 425 184 362
f 41 43 34
f 50 71 37
f 94 291 346
f 24 48 56
f 88 56 48
f 419 434 68
f 153 342 126
f 19 15 25
f 39 45 115
f 65 16 21
f 56 89 24
f 34 11 41
f 65 46 16
f 432 358 390
f 40 358 432
f 310 330 365
f 171 62 85
f 11 16 41
f 125 483 20
f 36 70 30
f 43 27 34
f 58 22 27
f 107 32 63
f 14 115 45
f 467 320 64
f 266 464 151
f 102 434 310
f 103 120 229
f 42 374 237
f 267 4 130
f 34 27 22
f 38 30 12
f 174 114 235
f 172 143 137
f 45 38 12
f 219 215 281
f 474 498 352
f 89 115 14
f 24 12 70
f 45 12 14
f 24 89 14
f 30 70 12
f 11 8 16
f 353 9 352
f 44 293 291
f 413 222 4
f 239 167 130
f 34 5 11
f 15 6 22
f 141 31 333
f 17 200 371
f 24 14 12
f 103 1 120
f 5 15 11
f 491 159 146
f 400 236 461
f 34 22 6
f 15 8 11
f 5 34 6
f 43 77 58
f 3 19 25
f 179 105 77
f 3 25 21
f 3 21 16
f 6 15 5
f 15 19 2
f 63 32 78
f 19 3 16
f 102 477 175
f 72 23 485
f 49 44 196
f 16 2 19
f 8 2 16
